<?xml version="1.0" encoding="UTF-8" standalone="no"?>
<svg
   xmlns:dc="http://purl.org/dc/elements/1.1/"
   xmlns:cc="http://creativecommons.org/ns#"
   xmlns:rdf="http://www.w3.org/1999/02/22-rdf-syntax-ns#"
   xmlns:svg="http://www.w3.org/2000/svg"
   xmlns="http://www.w3.org/2000/svg"
   xmlns:sodipodi="http://sodipodi.sourceforge.net/DTD/sodipodi-0.dtd"
   xmlns:inkscape="http://www.inkscape.org/namespaces/inkscape"
   version="1.1"
   id="svg2"
   xml:space="preserve"
   width="1600"
   height="1333.3333"
   viewBox="0 0 1600 1333.3333"
   sodipodi:docname="EntrustCenterRound.svg"
   inkscape:version="1.0.1 (3bc2e813f5, 2020-09-07)"><metadata
     id="metadata8"><rdf:RDF><cc:Work
         rdf:about=""><dc:format>image/svg+xml</dc:format><dc:type
           rdf:resource="http://purl.org/dc/dcmitype/StillImage" /><dc:title></dc:title></cc:Work></rdf:RDF></metadata><defs
     id="defs6"><clipPath
       clipPathUnits="userSpaceOnUse"
       id="clipPath18"><path
         d="M 0,1000 H 1200 V 0 H 0 Z"
         id="path16" /></clipPath></defs><sodipodi:namedview
     pagecolor="#ffffff"
     bordercolor="#666666"
     borderopacity="1"
     objecttolerance="10"
     gridtolerance="10"
     guidetolerance="10"
     inkscape:pageopacity="0"
     inkscape:pageshadow="2"
     inkscape:window-width="1627"
     inkscape:window-height="938"
     id="namedview4"
     showgrid="false"
     inkscape:zoom="0.55125003"
     inkscape:cx="797.27891"
     inkscape:cy="666.66663"
     inkscape:window-x="124"
     inkscape:window-y="118"
     inkscape:window-maximized="0"
     inkscape:current-layer="g14" /><g
     id="g10"
     inkscape:groupmode="layer"
     inkscape:label="Entrust Computer Technology Center"
     transform="matrix(1.3333333,0,0,-1.3333333,0,1333.3333)"><g
       id="g14"
       clip-path="url(#clipPath18)"><g
         id="g184"
         transform="matrix(0.98246949,0,0,1,632.85098,729.999)"
         inkscape:export-xdpi="66.098579"
         inkscape:export-ydpi="66.098579"><path
           d="m 0,0 c 0.937,0 1.834,-0.146 2.71,-0.417 0.02,0 0.083,0 0.125,-0.062 3.628,-1.147 6.233,-4.566 6.233,-8.569 0,-4.128 -2.772,-7.63 -6.567,-8.673 -0.813,-0.25 -1.626,-0.375 -2.501,-0.375 -4.983,0 -9.027,4.066 -9.027,9.048 C -9.027,-4.044 -4.983,0 0,0 m -16.241,-11.341 c 1.105,-7.964 7.964,-14.093 16.22,-14.135 h 0.125 0.229 c 0.063,0 0.146,0.042 0.25,0.042 4.065,0.125 7.839,1.751 10.675,4.419 l 0.917,-0.437 C 40.986,-34.92 63.147,-58.561 74.572,-88.019 l 0.813,-2.106 -35.337,-10.736 c 0.855,-2.168 1.626,-4.378 2.314,-6.63 0.897,-2.96 1.647,-6.004 2.21,-9.069 4.316,-22.786 -0.959,-46.615 -14.489,-65.587 l 9.569,-13.322 c 18.909,23.767 26.164,54.184 19.91,83.892 l -0.396,1.876 35.295,10.716 c -0.564,2.252 -1.189,4.503 -1.876,6.755 -0.876,2.939 -1.856,5.795 -2.898,8.485 -13.009,34.711 -38.902,62.188 -72.926,77.408 l -0.542,0.208 c -0.063,0.375 -0.146,0.73 -0.25,1.084 -0.146,0.646 -0.333,1.272 -0.563,1.876 C 13.092,2.814 7.484,6.942 0.854,7.318 0.479,7.38 0.125,7.38 -0.229,7.38 H -0.334 C -3.128,7.338 -5.775,6.588 -8.068,5.233 -8.402,5.045 -8.735,4.837 -9.048,4.628 -9.465,4.357 -9.882,4.044 -10.278,3.732 l -0.021,-0.021 c -0.292,-0.23 -0.563,-0.48 -0.834,-0.73 -0.187,-0.167 -0.376,-0.354 -0.563,-0.542 -0.23,-0.208 -0.438,-0.417 -0.625,-0.646 -0.292,-0.376 -0.605,-0.751 -0.897,-1.126 -0.813,-1.063 -1.459,-2.209 -1.938,-3.419 -0.292,-0.729 -0.543,-1.48 -0.751,-2.251 -0.125,-0.521 -0.23,-1.063 -0.313,-1.585 -0.042,-0.271 -0.084,-0.542 -0.104,-0.813 l -0.063,-0.813 c -0.02,-0.271 -0.02,-0.542 -0.02,-0.834 0,-0.354 0.02,-0.729 0.041,-1.105 0.021,-0.396 0.084,-0.792 0.125,-1.188 M 4.732,-263.745 c -0.813,-0.25 -1.605,-0.355 -2.481,-0.355 -4.982,0 -9.026,4.045 -9.026,9.028 0,5.004 4.044,9.048 9.026,9.048 0.938,0 1.835,-0.146 2.689,-0.417 0.042,0 0.105,0 0.125,-0.063 3.628,-1.126 6.255,-4.545 6.255,-8.568 0,-4.108 -2.773,-7.63 -6.588,-8.673 m 12.905,14.552 c -2.315,6.005 -7.922,10.111 -14.552,10.507 -0.355,0.041 -0.709,0.041 -1.084,0.041 H 1.918 c -4.857,-0.083 -9.215,-2.334 -12.154,-5.794 -0.313,-0.355 -0.626,-0.709 -0.897,-1.084 -1.146,-1.565 -2.002,-3.294 -2.585,-5.296 l -0.104,-0.98 v -0.021 l -0.042,-0.417 h -0.042 l -1.459,-0.291 c -8.089,-1.648 -16.387,-2.482 -24.642,-2.482 -23.12,0 -45.657,6.484 -65.149,18.805 l -1.898,1.188 21.995,29.687 c -1.96,1.21 -3.92,2.544 -5.796,3.941 -2.501,1.834 -4.92,3.857 -7.192,5.962 -17.033,15.74 -26.977,38.027 -27.415,61.334 l -15.615,4.983 c -1.043,-30.354 11.258,-59.103 33.961,-79.243 l 1.438,-1.271 -21.973,-29.625 c 1.793,-1.48 3.648,-2.918 5.525,-4.315 2.459,-1.814 4.94,-3.524 7.379,-5.087 11.133,-7.213 23.163,-12.717 35.713,-16.428 12.571,-3.711 25.684,-5.608 38.985,-5.608 10.07,0 20.159,1.105 30,3.273 l 1.126,0.334 h 0.041 l 0.188,-0.209 0.626,-0.73 0.083,-0.062 0.229,-0.209 c 2.259,-1.693 4.869,-2.687 7.624,-3.016 l -0.001,10e-4 c 0.496,-0.073 0.998,-0.126 1.509,-0.153 0.187,-0.021 0.353,-0.021 0.542,-0.021 h 0.417 c 0.145,0 0.312,0.021 0.458,0.021 0.084,0 0.187,0.021 0.271,0.021 6.713,0.291 12.55,4.69 14.719,11.028 0.041,0.062 0.041,0.104 0.063,0.167 0.583,1.646 0.875,3.397 0.875,5.17 0,1.376 -0.146,2.731 -0.5,4.023 -0.167,0.626 -0.334,1.251 -0.584,1.856 m -158.214,29.729 c -0.813,-0.25 -1.626,-0.355 -2.502,-0.355 -4.982,0 -9.026,4.045 -9.026,9.027 0,5.004 4.044,9.048 9.026,9.048 0.939,0 1.835,-0.146 2.711,-0.417 0.02,0 0.083,0 0.125,-0.062 3.627,-1.126 6.233,-4.545 6.233,-8.569 0,-4.106 -2.773,-7.63 -6.567,-8.672 m 13.114,3.502 c 0.563,1.647 0.854,3.399 0.854,5.17 0,1.376 -0.146,2.731 -0.5,4.024 -0.146,0.625 -0.334,1.251 -0.563,1.855 -1.459,3.795 -4.253,6.838 -7.776,8.652 -0.855,0.48 -1.751,0.876 -2.71,1.189 -1.647,0.521 -3.336,0.813 -5.067,0.813 -0.229,0 -0.458,-0.021 -0.771,-0.021 l -0.709,-0.167 -0.667,-0.146 -0.042,0.063 -0.729,1.271 c -15.782,27.603 -20.285,59.708 -12.655,90.375 l 0.542,2.19 35.087,-11.592 c 0.542,2.272 1.189,4.524 1.918,6.755 0.98,2.939 2.126,5.858 3.419,8.693 9.611,21.119 27.644,37.526 49.639,45.261 l -0.146,16.386 c -29.166,-8.527 -52.62,-29.208 -64.607,-57.102 l -0.772,-1.751 -35.003,11.57 c -0.855,-2.168 -1.647,-4.378 -2.377,-6.609 -0.959,-2.876 -1.793,-5.774 -2.523,-8.609 -9.36,-35.838 -4.023,-73.239 15.011,-105.282 l 0.646,-0.917 0.042,-0.063 -0.25,-0.417 -0.042,-0.104 -0.334,-0.542 -0.166,-0.417 c -0.772,-2.314 -0.98,-4.67 -0.688,-6.942 0,-0.229 0.021,-0.458 0.083,-0.688 1.105,-7.964 7.964,-14.114 16.22,-14.156 h 0.125 0.229 c 0.063,0 0.146,0.042 0.25,0.042 6.797,0.209 12.78,4.628 14.969,11.05 0.021,0.041 0.021,0.104 0.063,0.166 m 219.651,75.949 c -0.813,-0.23 -1.605,-0.355 -2.481,-0.355 -4.982,0 -9.026,4.045 -9.026,9.027 0,5.025 4.044,9.069 9.026,9.069 0.918,0 1.835,-0.146 2.689,-0.417 0.042,0 0.105,0 0.126,-0.062 3.627,-1.147 6.234,-4.566 6.234,-8.59 0,-4.107 -2.752,-7.609 -6.568,-8.672 m 13.948,9.882 c -0.022,0.354 -0.063,0.688 -0.105,1 -0.042,0.271 -0.083,0.563 -0.145,0.834 -0.042,0.188 -0.084,0.375 -0.125,0.563 -0.084,0.438 -0.209,0.876 -0.334,1.293 -0.021,0.041 -0.021,0.062 -0.021,0.062 -0.084,0.313 -0.188,0.626 -0.313,0.917 -0.021,0.063 -0.041,0.126 -0.083,0.188 -0.313,0.772 -0.667,1.522 -1.105,2.231 -0.209,0.354 -0.438,0.709 -0.688,1.063 -0.042,0.042 -0.083,0.084 -0.125,0.146 -2.835,3.982 -7.36,6.567 -12.551,6.879 -0.354,0.063 -0.708,0.063 -1.084,0.063 h -0.083 c -8.881,-0.146 -16.073,-7.526 -16.073,-16.449 0,-6.275 3.544,-11.758 8.756,-14.51 l -0.125,-1.105 c -3.753,-31.584 -19.264,-60.041 -43.656,-80.139 l -1.73,-1.417 -21.286,30.208 c -1.793,-1.501 -3.648,-2.939 -5.567,-4.295 -2.543,-1.772 -5.19,-3.44 -7.922,-4.941 -12.591,-6.983 -26.873,-10.673 -41.32,-10.673 -8.651,0 -17.241,1.313 -25.496,3.877 l -9.653,-13.28 c 11.279,-4.149 23.099,-6.254 35.17,-6.254 h 0.021 c 17.804,0 35.337,4.732 50.723,13.655 l 1.646,0.959 21.244,-30.145 c 1.96,1.251 3.92,2.564 5.838,3.898 2.501,1.772 4.899,3.586 7.151,5.42 28.853,23.225 46.844,56.435 50.618,93.523 v 0.897 c 0.792,0.437 1.522,0.917 2.21,1.501 0.209,0.166 0.417,0.333 0.626,0.5 0.333,0.292 0.645,0.584 0.959,0.897 0.145,0.166 0.312,0.333 0.458,0.521 0.167,0.167 0.312,0.333 0.438,0.5 0.188,0.209 0.354,0.438 0.521,0.667 0.187,0.25 0.375,0.501 0.542,0.772 0.542,0.771 0.959,1.584 1.313,2.439 0.188,0.396 0.334,0.792 0.459,1.188 0.063,0.063 0.083,0.125 0.063,0.188 0.145,0.396 0.27,0.813 0.375,1.23 0.104,0.375 0.187,0.75 0.25,1.146 0.167,0.96 0.251,1.919 0.251,2.877 0,0.376 -0.022,0.751 -0.042,1.106 m -252.384,80.618 c 0.918,0 1.835,-0.146 2.69,-0.417 0.042,0 0.104,0 0.125,-0.063 3.628,-1.147 6.234,-4.566 6.234,-8.568 0,-4.128 -2.752,-7.63 -6.568,-8.673 -0.813,-0.25 -1.626,-0.375 -2.481,-0.375 -4.982,0 -9.026,4.065 -9.026,9.048 0,5.003 4.044,9.048 9.026,9.048 m -15.218,-15.156 c 0.042,-0.084 0.083,-0.188 0.104,-0.271 0.125,-0.292 0.271,-0.584 0.396,-0.876 0.209,-0.417 0.438,-0.834 0.688,-1.251 0.188,-0.292 0.355,-0.563 0.563,-0.855 0.209,-0.312 0.459,-0.625 0.709,-0.938 1.021,-1.292 2.231,-2.397 3.565,-3.294 0.313,-0.208 0.625,-0.396 0.938,-0.584 0.355,-0.208 0.709,-0.396 1.063,-0.563 0.021,0 0.042,-0.02 0.063,-0.041 2.147,-1.043 4.544,-1.626 7.088,-1.647 h 0.125 0.25 c 0.042,0 0.146,0.041 0.229,0.041 6.818,0.209 12.78,4.608 14.969,11.029 0.042,0.063 0.042,0.125 0.063,0.188 0.563,1.647 0.875,3.398 0.875,5.17 0,1.375 -0.145,2.71 -0.521,4.002 -0.146,0.647 -0.312,1.272 -0.563,1.877 -0.187,0.5 -0.417,0.98 -0.646,1.459 l 0.646,0.73 c 21.265,23.662 50.327,37.984 81.849,40.361 l 2.251,0.167 v -36.963 c 2.314,0.208 4.67,0.312 7.005,0.312 3.086,0 6.234,-0.187 9.319,-0.521 23.079,-2.502 44.322,-14.489 58.541,-32.939 l 15.531,5.274 c -17.241,25.018 -44.239,40.8 -74.468,43.447 l -1.918,0.167 V 5.691 c -2.314,0.126 -4.649,0.188 -7.005,0.188 -3.065,0 -6.067,-0.104 -8.965,-0.313 -36.963,-2.356 -70.799,-19.138 -95.253,-47.261 l -0.396,-0.584 c -0.334,0.042 -0.688,0.062 -1.043,0.083 -0.354,0.063 -0.708,0.063 -1.084,0.063 h -0.083 c -8.881,-0.146 -16.074,-7.526 -16.074,-16.428 0,-1.064 0.105,-2.127 0.313,-3.127 0.209,-1.022 0.501,-2.002 0.876,-2.981"
           style="fill:#29a9e1;fill-opacity:1;fill-rule:nonzero;stroke:none"
           id="path186" /></g><g
         id="g188"
         transform="matrix(0.98246949,0,0,1,579.17209,631.8096)"
         inkscape:export-xdpi="66.098579"
         inkscape:export-ydpi="66.098579"><path
           d="M 0,0 C 0.79,-0.952 0.768,-2.108 0.303,-3.104 0.271,-3.168 0.249,-3.244 0.227,-3.32 0.184,-3.363 0.13,-3.396 0.119,-3.46 0,-3.633 -0.141,-3.806 -0.271,-3.968 c -0.064,-0.065 -0.086,-0.141 -0.162,-0.206 -0.129,-0.14 -0.281,-0.249 -0.432,-0.368 -0.043,-0.032 -0.097,-0.064 -0.152,-0.097 -0.043,-0.032 -0.118,-0.075 -0.194,-0.13 -0.033,0 -0.054,-0.043 -0.108,-0.064 -0.022,-0.033 -0.087,-0.044 -0.14,-0.065 -0.13,-0.098 -0.249,-0.108 -0.379,-0.184 v -13.041 l -0.022,-0.022 c -3.049,-3.114 -6.185,-6.174 -9.234,-9.277 -0.011,-2.769 -0.033,-5.494 -0.054,-8.262 2.67,-0.768 4.768,-3.482 4.13,-6.315 -0.022,-0.184 -0.065,-0.368 -0.119,-0.519 0,-0.032 -0.021,-0.043 -0.021,-0.043 v -0.033 c 0,-0.021 0,-0.032 -0.022,-0.064 -0.152,-0.573 -0.432,-1.082 -0.789,-1.557 0,0 -0.022,0 -0.022,-0.033 -0.054,-0.044 -0.075,-0.065 -0.119,-0.108 -0.465,-0.552 -1.006,-1.027 -1.611,-1.395 -0.087,-0.065 -0.162,-0.086 -0.249,-0.151 -0.411,-0.238 -0.832,-0.422 -1.298,-0.617 0.887,-1.546 2.315,-2.649 3.547,-3.936 0.811,-0.811 1.633,-1.622 21.151,-21.659 v -3.439 c -23.475,24.038 -24.849,25.401 -26.168,26.742 -0.757,0.562 -0.714,1.546 -0.844,2.357 -2.389,0.779 -4.357,2.931 -4.206,5.569 0,0.075 0,0.162 0.022,0.205 0,0.087 0,0.162 0.021,0.249 -0.021,0.022 -0.021,0.022 0,0.022 v 0.021 c 0,0.119 0.033,0.227 0.065,0.346 0,0.065 0,0.108 0.033,0.184 0.011,0.108 0.043,0.216 0.086,0.336 0.022,0.107 0.076,0.205 0.119,0.302 0.022,0.054 0.044,0.13 0.054,0.195 0.065,0.108 0.076,0.205 0.13,0.324 h 0.011 c 0.054,0.087 0.119,0.173 0.173,0.249 0.032,0.086 0.097,0.173 0.151,0.27 0.044,0.065 0.087,0.141 0.141,0.195 0.021,0.032 0.032,0.054 0.032,0.075 0.076,0.076 0.119,0.141 0.163,0.174 0.27,0.324 0.551,0.627 0.864,0.876 0.119,0.086 0.239,0.183 0.314,0.248 h 0.065 c 0.541,0.411 1.178,0.757 1.806,0.973 0.065,5.84 0.108,11.679 0.173,17.518 -4.282,4.347 -8.662,8.586 -12.911,12.965 -0.638,0.487 -0.444,1.298 -0.509,1.99 0.022,3.006 0,6.066 0.022,9.105 -1.178,1.222 -2.454,2.443 -3.633,3.73 -0.043,-0.054 -0.086,-0.065 -0.108,-0.108 -0.303,-0.216 -0.617,-0.443 -0.963,-0.649 -0.065,-0.043 -0.14,-0.086 -0.205,-0.14 -0.379,-0.195 -0.757,-0.39 -1.146,-0.541 -0.044,-0.033 -0.076,-0.043 -0.098,-0.043 -0.021,0 -0.043,0 -0.043,-0.022 -0.292,-0.086 -0.562,-0.162 -0.876,-0.216 -0.151,-0.032 -0.313,-0.065 -0.454,-0.065 -0.303,-0.022 -0.606,-0.022 -0.898,0.033 h -0.086 c -0.227,0.021 -0.454,0.064 -0.67,0.162 -2.693,0.551 -4.499,3.46 -4.012,6.13 0.011,0.033 0.011,0.098 0.043,0.163 0.022,0.119 0.043,0.249 0.098,0.357 0.032,0.151 0.054,0.302 0.129,0.432 l 0.033,0.011 c 0.086,0.325 0.248,0.627 0.422,0.919 0.042,0.087 0.118,0.162 0.162,0.249 0.043,0.043 0.086,0.119 0.13,0.173 l 0.032,0.022 c 0.086,0.14 0.195,0.281 0.335,0.389 0.043,0.076 0.097,0.14 0.162,0.195 0,0.021 0.022,0.021 0.022,0.032 0.173,0.162 0.357,0.313 0.562,0.454 0.043,0.054 0.097,0.076 0.141,0.119 0.043,0.032 0.086,0.076 0.151,0.108 0.022,0 0.054,0.022 0.054,0.054 0.043,0.022 0.065,0.022 0.108,0.044 0.163,0.118 0.325,0.173 0.497,0.27 0.077,0.032 0.141,0.065 0.206,0.097 0.054,0.022 0.119,0.033 0.163,0.065 0.021,0 0.043,0.022 0.075,0.022 0.087,0.043 0.173,0.065 0.26,0.097 0.075,0.011 0.151,0.011 0.183,0.043 0.368,0.087 0.758,0.152 1.114,0.173 0.043,0 0.108,0.033 0.173,0.033 0.833,0.011 1.698,-0.119 2.487,-0.552 2.368,-1.038 3.428,-3.839 2.909,-6.293 1.503,-1.547 3.071,-2.974 4.52,-4.563 0.595,-0.552 0.325,-1.406 0.389,-2.12 v -8.899 c 4.196,-4.206 8.413,-8.402 12.608,-12.587 1.298,-0.941 0.639,-2.703 0.79,-4.044 0.995,1.027 2,2.022 2.974,3.071 0.032,0.032 0.032,0.043 0.054,0.043 -0.141,1.341 0.227,2.822 -0.249,4.077 -0.292,0.303 -0.616,0.649 -0.963,0.984 -0.291,0.324 -0.605,0.638 -0.919,0.984 -1.924,1.925 -3.892,3.838 -5.785,5.742 -0.876,0.865 -1.698,1.708 -2.541,2.595 -0.043,0.627 -0.075,1.244 -0.108,1.903 v 0.703 C -18.577,0.887 -18.566,2 -18.566,3.114 v 0.638 c 0.032,1.179 0.065,2.336 0.032,3.504 -0.162,-0.054 -0.368,-0.119 -0.573,-0.141 h -0.086 c -0.044,-0.021 -0.109,-0.043 -0.162,-0.021 -0.012,0 -0.044,0 -0.065,-0.022 -0.022,-0.032 -0.076,0 -0.109,0 -0.313,-0.054 -0.638,-0.054 -0.962,-0.032 h -0.065 c -0.141,0.032 -0.292,0.054 -0.454,0.075 -0.022,0 -0.022,0.022 -0.022,0.022 -0.054,0 -0.097,0.022 -0.14,0.022 -0.065,0.021 -0.162,0.043 -0.227,0.075 -0.022,0.022 -0.044,0.043 -0.065,0.043 -0.087,0.044 -0.184,0.065 -0.282,0.109 -0.021,0.021 -0.032,0.021 -0.054,0.021 -0.129,0.065 -0.227,0.141 -0.346,0.227 -0.032,-0.01 -0.032,-0.01 -0.032,0 -0.108,0.087 -0.227,0.184 -0.314,0.303 -0.021,0.011 -0.043,0.065 -0.065,0.086 -0.086,0.109 -0.162,0.227 -0.227,0.336 -0.065,0.097 -0.162,0.194 -0.205,0.303 -0.13,0.216 -0.227,0.464 -0.27,0.756 -0.033,0.011 -0.033,0.033 -0.033,0.087 -0.011,0.054 -0.032,0.13 -0.032,0.195 -0.032,0.108 -0.032,0.227 -0.032,0.357 v 0.053 c 0,0.098 0.032,0.184 0.032,0.271 0.021,0.054 0,0.086 0.021,0.119 v 0.043 c 0,0.065 0.011,0.119 0.044,0.162 v 0.087 c 0.021,0.032 0.021,0.054 0.021,0.054 0.022,0.086 0.044,0.151 0.065,0.248 0.032,0.044 0.054,0.087 0.065,0.13 0.032,0.098 0.065,0.162 0.119,0.249 0.043,0.097 0.097,0.173 0.162,0.27 0.022,0.044 0.022,0.098 0.043,0.119 0.098,0.141 0.206,0.27 0.314,0.389 0,0.022 0.033,0.022 0.033,0.022 0.032,0.043 0.086,0.054 0.107,0.108 0.12,0.098 0.206,0.195 0.314,0.27 0.054,0.055 0.087,0.076 0.162,0.12 0.022,0.032 0.076,0.043 0.108,0.064 0.033,0.033 0.076,0.055 0.098,0.065 0.065,0.033 0.14,0.055 0.205,0.087 0.065,0.033 0.13,0.065 0.184,0.076 0.173,0.064 0.357,0.086 0.551,0.14 h 0.13 c 0,0.022 0.022,0 0.022,0.022 0.098,0 0.151,0.022 0.249,0.022 1.449,0.097 2.984,-1.05 3.179,-2.52 -0.314,-4.314 -0.292,-8.683 -0.13,-12.965 3.395,-3.623 7.083,-7.007 10.489,-10.64 -0.043,-1.633 -0.043,-3.245 -0.011,-4.877 -1.406,-1.45 -2.833,-2.823 -4.239,-4.272 0,-1.232 -0.01,-2.454 -0.043,-3.709 1.773,1.817 3.558,3.623 5.363,5.407 0.887,0.887 1.774,1.773 2.65,2.66 v 3.417 c -2.174,2.195 -4.38,4.401 -6.564,6.607 h -0.011 c -2.216,2.195 -4.39,4.379 -6.596,6.553 -0.043,5.028 0.011,10.024 -0.022,15.03 -0.854,0.27 -1.654,0.93 -2.141,1.698 v 0.022 c -0.086,0.162 -0.183,0.335 -0.216,0.497 -0.162,0.314 -0.227,0.638 -0.227,0.995 0,0.162 0.043,0.292 0.065,0.433 0.022,0.097 0.022,0.183 0.032,0.27 v 0.032 c 0.033,0.195 0.152,0.433 0.26,0.638 0.043,0.152 0.14,0.292 0.227,0.422 0.065,0.086 0.119,0.184 0.205,0.249 0,0.032 0.033,0.032 0.033,0.054 0.065,0.032 0.108,0.108 0.173,0.162 l 0.065,0.065 c 0.119,0.129 0.227,0.227 0.368,0.292 l 0.01,0.022 c 0.13,0.075 0.238,0.118 0.346,0.162 0.043,0.021 0.065,0.043 0.119,0.065 0.044,0.021 0.087,0.021 0.162,0.043 0.779,0.281 1.633,0.249 2.379,-0.043 0.022,0 0.022,0 0.022,-0.022 0.681,-0.26 1.287,-0.746 1.568,-1.503 0.324,-0.562 0.389,-1.157 0.271,-1.73 v -0.087 c -0.044,-0.162 -0.055,-0.324 -0.13,-0.454 0,-0.011 -0.033,-0.043 -0.033,-0.065 -0.011,-0.065 -0.032,-0.14 -0.087,-0.184 -0.043,-0.14 -0.107,-0.248 -0.205,-0.356 -0.011,-0.065 -0.065,-0.119 -0.087,-0.163 -0.01,-0.043 -0.042,-0.065 -0.064,-0.119 -0.076,-0.054 -0.108,-0.129 -0.173,-0.173 -0.011,-0.032 -0.011,-0.032 -0.011,-0.054 -0.065,-0.064 -0.162,-0.129 -0.227,-0.194 -0.087,-0.098 -0.162,-0.184 -0.249,-0.26 -0.022,0 -0.022,-0.022 -0.043,-0.022 l -0.033,-0.01 c 0,-0.033 -0.011,-0.033 -0.043,-0.065 -0.108,-0.065 -0.249,-0.173 -0.378,-0.249 0,-0.011 -0.022,-0.011 -0.022,-0.011 -0.054,-0.022 -0.076,-0.054 -0.108,-0.065 -0.076,-0.022 -0.141,-0.075 -0.216,-0.119 -0.108,-0.065 -0.217,-0.13 -0.357,-0.173 -0.033,-1.87 -0.033,-3.73 -0.033,-5.601 0,-2.952 0,-5.882 -0.022,-8.835 3.98,-4.044 8.024,-8.066 12.068,-12.035 -0.097,0.952 0.087,2.044 -0.746,2.704 -3.352,3.352 -6.737,6.693 -10.089,10.056 0,2.477 0.022,4.953 -0.021,7.429 l 0.021,0.032 c 1.114,1.19 2.271,2.336 3.407,3.493 -0.282,0.724 -0.303,1.525 -0.065,2.271 0,0.065 0.01,0.119 0.043,0.184 0,0.053 0.022,0.065 0.022,0.108 0.043,0.119 0.097,0.237 0.173,0.346 0.076,0.183 0.184,0.368 0.302,0.53 0.044,0.086 0.087,0.172 0.174,0.259 l 0.032,0.033 c 0.033,0.01 0.043,0.043 0.097,0.086 0.065,0.086 0.152,0.162 0.26,0.249 0.021,0.032 0.075,0.043 0.118,0.065 0.065,0.075 0.163,0.14 0.249,0.184 0.022,0 0.022,0.021 0.044,0.021 0.076,0.054 0.119,0.065 0.194,0.119 h 0.011 c 0,0 0,0.022 0.022,0.022 0.076,0.021 0.14,0.054 0.184,0.065 0.097,0.021 0.162,0.043 0.248,0.075 0.076,0.022 0.108,0.033 0.206,0.033 0.065,0.022 0.14,0.022 0.216,0.022 0.086,0.032 0.173,0.053 0.26,0.053 0.54,0.065 1.049,-0.075 1.481,-0.291 h 0.022 c 0.227,-0.119 0.41,-0.26 0.584,-0.39 0.032,-0.021 0.032,-0.054 0.053,-0.065 0.184,-0.13 0.314,-0.324 0.444,-0.508 0.032,-0.022 0.054,-0.032 0.075,-0.065 0.141,-0.205 0.227,-0.379 0.314,-0.594 0.033,-0.044 0.054,-0.055 0.054,-0.109 0.087,-0.195 0.163,-0.41 0.195,-0.637 v -0.065 c 0.14,-0.801 0,-1.612 -0.541,-2.271 C -4.953,10.878 -4.974,10.856 -4.996,10.846 -5.093,10.684 -5.201,10.564 -5.309,10.457 -5.385,10.413 -5.428,10.359 -5.472,10.316 -5.525,10.294 -5.569,10.251 -5.601,10.219 -5.666,10.186 -5.699,10.165 -5.764,10.11 -6.229,9.84 -6.748,9.732 -7.288,9.7 h -0.044 -0.075 c -0.173,0 -0.335,0.032 -0.497,0.054 h -0.087 c -0.195,0.043 -0.346,0.054 -0.519,0.108 -0.389,0.097 -0.757,0.195 -1.103,0.389 -0.476,-0.476 -0.973,-0.94 -1.449,-1.417 -0.476,-0.475 -0.962,-0.973 -1.384,-1.492 -0.325,-2.162 -0.238,-4.411 -0.022,-6.596 3.028,-3.287 6.239,-6.38 9.397,-9.494 0.022,1.2 0.022,2.444 0.022,3.623 -0.13,0.064 -0.282,0.172 -0.422,0.248 -0.076,0.011 -0.119,0.044 -0.162,0.065 -0.184,0.108 -0.346,0.238 -0.53,0.346 -0.173,0.141 -0.346,0.292 -0.508,0.444 -0.055,0.054 -0.13,0.075 -0.162,0.14 -0.055,0.054 -0.098,0.108 -0.141,0.162 -0.022,0.022 -0.022,0.044 -0.054,0.065 -0.033,0.065 -0.108,0.13 -0.152,0.195 -0.043,0.075 -0.097,0.173 -0.129,0.238 0,0.021 0,0.021 -0.033,0.021 -0.086,0.184 -0.151,0.368 -0.194,0.541 -0.033,0.054 -0.054,0.119 -0.065,0.173 -0.098,0.335 -0.098,0.681 0,1.038 0,0.227 0.032,0.432 0.129,0.606 0,0.075 0.044,0.118 0.065,0.194 0.022,0.087 0.065,0.173 0.098,0.249 0.021,0.043 0.021,0.065 0.032,0.087 0.097,0.151 0.216,0.313 0.346,0.454 0.065,0.086 0.13,0.162 0.205,0.227 0.065,0.043 0.12,0.108 0.184,0.184 0.055,0.043 0.152,0.086 0.249,0.14 0.119,0.054 0.228,0.13 0.368,0.195 0.086,0.054 0.162,0.097 0.238,0.119 0.054,0.021 0.075,0.021 0.119,0.043 h 0.075 C -2.271,1.46 -0.778,1.211 0,0 m 13.43,-106.5 c -0.259,1.157 -0.627,2.303 -1.103,3.428 -0.162,0.367 -0.313,0.757 -0.508,1.124 -0.022,0.044 -0.022,0.065 -0.043,0.087 -0.433,0.876 -0.93,1.741 -1.492,2.573 -0.141,0.206 -0.271,0.433 -0.444,0.617 -0.335,0.54 -0.724,1.081 -1.135,1.611 -0.487,0.616 -0.995,1.211 -1.471,1.795 v 0.011 l -0.995,1.103 c -0.443,0.486 -0.886,0.941 -1.373,1.405 -0.8,0.822 -1.622,1.579 -2.444,2.314 -0.032,-0.021 -0.032,-0.021 -0.032,0 -2.206,1.947 -4.412,3.601 -6.218,4.91 -1.395,0.983 -2.746,2.022 -4.044,3.071 -0.433,0.324 -0.865,0.681 -1.276,1.038 h -0.021 c -1.103,0.962 -2.206,1.903 -3.234,2.865 -0.54,0.476 -1.016,0.973 -1.525,1.471 -1.005,0.984 -1.946,1.99 -2.865,2.995 -0.508,0.605 -1.006,1.179 -1.514,1.773 -0.541,0.66 -1.07,1.352 -1.557,1.969 -0.162,0.237 -0.314,0.475 -0.508,0.67 -5.526,5.536 -15.269,15.257 -15.647,15.647 -0.573,0.022 -1.103,0.022 -1.676,0.022 h -0.022 c -0.227,-0.595 -0.595,-1.201 -1.081,-1.698 -0.173,-0.184 -0.378,-0.357 -0.595,-0.498 -0.227,-0.162 -0.476,-0.281 -0.735,-0.367 -0.13,-0.043 -0.27,-0.098 -0.422,-0.119 -0.021,0 -0.043,0 -0.075,-0.011 -0.271,0.422 -0.541,0.843 -0.801,1.254 0.39,-0.097 0.801,-0.076 1.168,0.087 0.087,0.032 0.184,0.075 0.259,0.129 0.12,0.076 0.217,0.174 0.314,0.292 0.26,0.174 0.411,0.357 0.519,0.617 0.422,0.962 -0.151,2.336 -1.254,2.638 -0.098,0.044 -0.184,0.065 -0.303,0.109 -0.227,0.021 -0.454,0 -0.692,-0.022 -0.108,-0.022 -0.227,-0.065 -0.335,-0.119 -0.087,-0.033 -0.162,-0.076 -0.238,-0.13 -0.357,-0.205 -0.659,-0.508 -0.854,-0.876 -0.033,-0.097 -0.065,-0.195 -0.087,-0.292 -0.259,0.422 -0.497,0.833 -0.746,1.244 0.249,0.422 0.616,0.778 1.092,1.005 0.076,0.044 0.151,0.076 0.228,0.109 0.097,0.065 0.205,0.097 0.324,0.14 0.67,0.249 1.373,0.227 2.022,-0.033 0.292,-0.107 0.616,-0.291 0.886,-0.508 h 0.033 c 0.27,-0.216 0.53,-0.465 0.757,-0.767 v -0.022 c 0.076,-0.119 0.141,-0.205 0.206,-0.325 0.064,-0.107 0.107,-0.237 0.162,-0.345 0.021,-0.022 0.032,-0.022 0.021,-0.044 0.065,-0.043 0.119,-0.13 0.141,-0.205 0.778,-0.054 1.557,-0.022 2.303,-0.162 0.26,-0.206 0.508,-0.422 0.746,-0.649 l 0.681,-0.703 c 0.26,-0.227 5.288,-5.255 10.122,-10.078 -0.281,0.465 -0.53,0.897 -0.747,1.308 v 0.022 c -0.378,0.703 -0.659,1.287 -0.962,1.871 v 0.011 c -0.152,0.389 -0.302,0.757 -0.465,1.114 -0.4,0.929 -0.648,1.74 -0.833,2.378 v 0.011 c -0.086,0.292 -0.129,0.541 -0.205,0.768 -0.119,0.53 -0.227,1.146 -0.184,1.168 -0.01,0.183 -0.043,0.346 -0.043,0.486 -1.395,0.141 -2.779,0.076 -4.131,0.044 -1.903,1.794 -3.741,3.654 -5.58,5.536 -2.011,0.022 -4.054,0.032 -6.076,0 h -0.552 c -0.227,-0.26 -0.486,-0.476 -0.79,-0.649 -0.205,0.379 -0.399,0.757 -0.605,1.125 0.033,0.032 0.065,0.065 0.087,0.097 0.205,0.184 0.346,0.378 0.443,0.595 0.184,0.389 0.184,0.821 0.087,1.233 v 0.021 c -0.109,0.389 -0.336,0.725 -0.66,0.973 -0.098,0.087 -0.206,0.162 -0.325,0.227 -0.097,0.065 -0.14,0.087 -0.237,0.119 -0.13,0.087 -0.292,0.098 -0.444,0.13 -0.183,0.043 -0.421,0.022 -0.605,-0.032 h -0.065 c -0.184,0.367 -0.368,0.746 -0.53,1.113 0.054,0.022 0.097,0.033 0.162,0.055 0.227,0.075 0.454,0.097 0.735,0.097 0.303,0.022 0.606,-0.011 0.876,-0.076 1.579,-0.411 2.563,-2.173 2.423,-3.817 2.184,0.022 4.379,0.022 6.563,0.022 1.904,-1.86 3.72,-3.764 5.666,-5.601 1.222,0.053 2.433,0.053 3.655,0.075 0,0.043 -0.032,0.087 0,0.141 -0.064,0.8 0.087,1.697 -0.367,2.379 -0.054,0.043 -0.13,0.118 -0.163,0.183 -0.064,0.076 -0.097,0.109 -0.194,0.173 -2.768,2.812 -5.591,5.591 -8.359,8.413 -1.611,0.087 -3.341,-0.302 -4.877,0.206 -1.924,1.686 -3.665,3.622 -5.482,5.439 -0.508,-0.227 -1.006,-0.508 -1.525,-0.692 -0.065,-0.033 -0.14,-0.054 -0.205,-0.076 -0.444,-0.152 -0.887,-0.249 -1.363,-0.195 -0.108,0 -0.205,0 -0.302,0.011 -0.26,0.692 -0.487,1.384 -0.703,2.066 0.638,-0.325 1.395,-0.412 2.054,-0.13 0.044,0.021 0.098,0.043 0.141,0.065 0.108,0.043 0.205,0.119 0.303,0.183 0.562,0.346 0.918,0.898 1.059,1.493 0.109,0.411 0.076,0.875 -0.032,1.276 -0.044,0.259 -0.162,0.465 -0.281,0.67 -0.055,0.141 -0.184,0.259 -0.27,0.379 -0.141,0.13 -0.292,0.27 -0.476,0.378 -0.206,0.162 -0.411,0.259 -0.627,0.378 h -0.011 c -0.13,0.033 -0.228,0.033 -0.357,0.055 -0.227,0.043 -0.465,0.032 -0.682,0 -0.043,0 -0.075,-0.011 -0.118,-0.022 -0.162,0 -0.325,-0.065 -0.476,-0.152 -0.498,-0.194 -0.952,-0.551 -1.254,-1.005 -0.174,0.692 -0.347,1.384 -0.498,2.076 0.368,0.271 0.768,0.498 1.168,0.649 0.27,0.108 0.551,0.184 0.833,0.238 0.919,0.151 1.87,0.032 2.725,-0.487 2.065,-1.016 2.595,-3.59 1.957,-5.623 1.762,-1.816 3.557,-3.579 5.32,-5.353 1.179,0.033 2.335,0.033 3.514,0.033 0,5.569 -0.021,11.116 0,16.696 -0.097,0.822 0.249,1.827 -0.487,2.455 -2.097,2.249 -4.411,4.357 -6.542,6.563 -0.13,-0.097 -0.281,-0.206 -0.41,-0.292 -0.271,-0.194 -0.563,-0.357 -0.887,-0.486 v -0.022 c -0.206,-0.108 -0.422,-0.184 -0.605,-0.238 -0.152,-0.065 -0.303,-0.119 -0.455,-0.129 -0.227,-0.077 -0.476,-0.12 -0.713,-0.141 -0.649,-0.119 -1.276,-0.065 -1.904,0.097 -0.259,0.044 -0.508,0.108 -0.757,0.249 -0.032,-0.022 -0.032,-0.022 -0.032,0 -0.249,0.119 -0.465,0.259 -0.703,0.421 -0.13,0.055 -0.248,0.13 -0.357,0.249 -0.14,0.086 -0.27,0.184 -0.368,0.281 l -0.097,0.097 c -0.173,0.141 -0.302,0.282 -0.422,0.422 v 0.011 c -0.378,0.465 -0.67,0.973 -0.843,1.525 -0.076,0.205 -0.108,0.389 -0.162,0.595 -0.141,0.648 -0.162,1.286 -0.043,1.924 0.022,0.314 0.097,0.606 0.184,0.898 0.27,0.876 0.8,1.708 1.535,2.292 0.335,0.314 0.724,0.552 1.136,0.725 0.14,0.075 0.281,0.129 0.421,0.173 2.185,0.822 4.942,0.021 6.175,-2.044 0.735,-1.049 0.919,-2.314 0.735,-3.558 -0.043,-0.27 -0.098,-0.54 -0.162,-0.8 -0.076,-0.227 -0.13,-0.486 -0.238,-0.713 2.584,-2.617 5.169,-5.169 7.775,-7.754 0.075,-6.671 -0.065,-13.354 0.065,-20.026 1.502,-1.935 3.46,-3.46 5.082,-5.298 0.032,3.579 0.097,7.169 -0.022,10.759 -0.66,1.363 -2.173,2.087 -2.952,3.385 -0.141,2.822 0,5.655 -0.076,8.499 h 0.022 c 0.184,0.248 0.389,0.432 0.573,0.659 0.422,0.422 0.865,0.801 1.341,1.2 0.335,0.292 0.659,0.595 0.951,0.909 0.562,0.573 0.995,1.222 1.157,1.968 0.065,0.248 0.087,0.465 0.087,0.725 -0.552,0.54 -1.103,1.07 -1.676,1.632 -0.152,-0.097 -0.368,-0.216 -0.563,-0.227 -0.237,-0.108 -0.464,-0.14 -0.713,-0.195 -0.033,-0.021 -0.076,-0.021 -0.119,-0.021 -1.557,-0.206 -3.222,0.541 -3.623,2.249 -0.162,0.508 -0.162,1.027 -0.032,1.514 0.032,0.205 0.097,0.389 0.184,0.606 0.162,0.357 0.411,0.702 0.714,0.973 0.151,0.173 0.292,0.303 0.486,0.389 0.184,0.119 0.368,0.238 0.541,0.335 0.216,0.065 0.4,0.13 0.605,0.195 0.325,0.065 0.649,0.108 0.984,0.032 0.109,-0.032 0.227,-0.032 0.39,-0.075 0.248,-0.076 0.508,-0.184 0.735,-0.346 1.719,-0.844 1.838,-2.974 1.341,-4.607 0.627,-0.605 1.232,-1.244 1.871,-1.881 0.021,-0.779 0.054,-1.579 0.065,-2.39 l -0.011,-0.022 c -1.266,-1.471 -2.855,-2.671 -4.023,-4.239 -0.097,-2.433 -0.065,-4.887 -0.022,-7.353 0.779,-1.276 2.314,-2.032 2.985,-3.384 0.108,-4.131 0.022,-8.283 0.054,-12.403 0.443,-0.497 0.876,-0.963 1.319,-1.406 -0.01,5.18 0.054,10.414 -0.01,15.615 -1.341,1.211 -3.039,2.357 -3.288,4.357 -0.194,0.844 -0.14,1.709 0.119,2.466 0.498,1.784 2.011,3.244 3.774,3.871 0.162,0.065 0.292,0.129 0.465,0.162 0.086,2.336 0.043,4.661 0.065,6.996 -0.097,0.811 0.227,1.784 -0.433,2.433 -2.898,3.039 -5.926,5.872 -8.845,8.856 -0.357,-0.292 -0.768,-0.529 -1.233,-0.713 -1.232,-0.476 -2.638,-0.433 -3.579,0.648 -0.962,0.866 -1.103,2.163 -0.67,3.299 0.292,0.757 0.832,1.427 1.567,1.795 0.185,0.086 0.368,0.162 0.574,0.194 0.248,0.065 0.508,0.119 0.778,0.098 2.206,0.118 3.58,-2.131 3.168,-4.131 3.234,-3.395 6.672,-6.574 9.895,-10.024 -0.076,-3.125 0,-6.217 -0.054,-9.332 2.919,-0.335 5.579,-2.876 5.277,-5.947 -0.033,-0.53 -0.109,-1.06 -0.303,-1.514 -0.53,-1.438 -1.72,-2.595 -3.158,-3.212 -0.205,-0.086 -0.389,-0.184 -0.616,-0.227 -0.097,-0.054 -0.216,-0.075 -0.313,-0.097 -0.174,-0.065 -0.357,-0.087 -0.563,-0.119 -0.065,-0.043 -0.162,-0.043 -0.227,-0.065 0.043,-4.93 -0.032,-9.883 -0.032,-14.825 v -0.141 c 0.032,-1.026 0.216,-6.585 0.238,-6.963 v -0.022 c 0,0 0,-0.194 0.086,-0.562 0.054,-0.357 0.184,-0.865 0.433,-1.579 0.075,-0.216 0.162,-0.508 0.281,-0.778 0.183,-0.444 0.389,-0.974 0.659,-1.558 0.141,-0.313 0.303,-0.627 0.487,-0.973 0.162,-0.292 0.324,-0.616 0.487,-0.93 0.313,-0.584 0.692,-1.146 1.081,-1.816 0.195,-0.314 0.389,-0.649 0.627,-0.984 0.292,-0.444 0.584,-0.876 0.876,-1.33 0.724,-1.038 1.546,-2.141 2.454,-3.309 0.303,-0.368 0.628,-0.757 0.973,-1.168 3.742,-4.563 8.435,-8.856 13.95,-12.782 1.416,-0.994 3.049,-2.227 4.747,-3.622 -0.087,0.13 -0.205,0.27 -0.292,0.433 H 2.065 c -0.659,0.692 -12.1,12.349 -12.792,13.008 -0.043,3.374 0.022,6.747 -0.043,10.132 -0.433,0.152 -0.833,0.4 -1.179,0.725 -0.151,0.086 -0.227,0.205 -0.346,0.324 -0.14,0.151 -0.27,0.313 -0.4,0.487 -0.4,0.67 -0.562,1.492 -0.248,2.26 0.032,0.097 0.075,0.184 0.118,0.27 0.26,0.692 0.801,1.179 1.428,1.427 0.194,0.097 0.411,0.162 0.627,0.184 0.335,0.076 0.67,0.076 1.027,0.043 0.087,-0.01 0.227,-0.043 0.314,-0.065 0.757,-0.183 1.449,-0.691 1.773,-1.492 0.411,-0.702 0.379,-1.492 0.119,-2.162 -0.357,-0.909 -1.178,-1.655 -2.098,-2.012 -0.032,-3.19 0.033,-6.369 -0.021,-9.569 2.779,-2.888 5.763,-5.948 8.369,-8.608 -2.681,3.99 -5.093,7.526 -5.331,7.753 0,1.86 0,3.698 -0.032,5.558 -1.222,0.552 -2.476,1.547 -2.271,3.049 0,0.238 0.022,0.466 0.087,0.639 0.184,0.929 0.93,1.589 1.773,1.892 1.146,0.4 2.541,0.173 3.276,-0.963 0.411,-0.529 0.595,-1.081 0.552,-1.654 0,-0.141 0,-0.303 -0.043,-0.465 -0.022,-0.151 -0.076,-0.313 -0.109,-0.454 -0.367,-0.941 -1.178,-1.752 -2.162,-2.044 0,-1.698 0,-3.363 -0.033,-5.028 0.465,-0.454 5.223,-7.483 9.019,-13.008 0.075,-0.065 0.119,-0.108 0.194,-0.206 H 3.59 c 0,-0.021 0.022,-0.021 0.022,-0.021 1.027,-1.536 1.99,-2.931 2.746,-4.044 L 6.38,-90.68 c 0.183,-0.162 0.368,-0.346 0.552,-0.53 0.345,-0.346 0.692,-0.714 1.059,-1.082 0.249,-0.281 0.498,-0.573 0.779,-0.865 0.227,-0.248 0.454,-0.508 0.659,-0.778 0.281,-0.303 0.53,-0.638 0.79,-0.952 0.043,-0.065 0.086,-0.119 0.13,-0.183 0.443,-0.53 0.864,-1.093 1.243,-1.622 0.313,-0.454 0.638,-0.941 0.962,-1.406 0.292,-0.476 0.595,-0.984 0.876,-1.471 z m 1.461,151.003 c -43.435,0 -78.772,-35.333 -78.772,-78.764 0,-40.051 30.058,-73.214 68.804,-78.127 -1.9,1.747 -3.801,3.479 -5.701,5.239 -1.666,-0.065 -3.32,-0.184 -4.996,-0.205 l -0.033,0.021 c -0.292,0.086 -0.562,0.292 -0.767,0.508 -0.065,0.054 -0.13,0.109 -0.206,0.174 -0.173,0.183 -0.335,0.367 -0.519,0.507 -2.022,1.925 -4.185,3.721 -6.142,5.699 l -0.021,0.022 c -0.065,0.292 -0.174,0.908 -0.249,1.2 -0.043,0.022 -0.108,0.022 -0.173,0.054 -0.054,0 -0.119,0 -0.184,0.011 -0.811,0.195 -1.557,0.638 -2.13,1.243 -0.444,0.455 -0.779,0.996 -0.984,1.58 -0.249,0.767 -0.292,1.578 0,2.411 0.021,0.065 0.043,0.119 0.065,0.184 0.086,0.302 0.248,0.627 0.475,0.908 0.076,0.086 0.141,0.173 0.217,0.27 0.108,0.108 0.195,0.227 0.302,0.314 0.984,0.908 2.412,1.319 3.709,1.049 0.541,-0.141 1.071,-0.368 1.503,-0.746 0.617,-0.422 1.071,-1.028 1.287,-1.709 0.098,-0.227 0.173,-0.454 0.184,-0.714 0.162,-0.714 0.119,-1.513 -0.151,-2.216 -0.119,-0.335 -0.271,-0.638 -0.509,-0.93 v -0.033 c -0.281,-0.421 -0.724,-0.789 -1.243,-1.038 -0.162,-0.119 -0.432,-0.227 -0.724,-0.335 -0.098,-0.054 -0.163,-0.098 -0.249,-0.141 -0.119,-0.075 -0.217,-0.14 -0.281,-0.205 -0.13,-0.141 -0.206,-0.271 -0.13,-0.433 0,-0.054 0,-0.065 0.021,-0.086 0.033,-0.076 0.087,-0.141 0.173,-0.216 2.185,-2.249 4.618,-4.218 6.846,-6.402 1.772,-0.065 3.589,0.324 5.341,0.076 l 0.022,-0.033 c 1.092,-0.973 2.206,-1.935 3.287,-2.952 1.092,-0.995 2.162,-2.021 3.233,-3.038 l 0.022,-0.022 c 0.002,-0.019 0.004,-0.078 0.006,-0.165 0.26,-0.029 0.521,-0.06 0.782,-0.086 -0.004,0.415 -0.007,0.678 -0.01,0.727 -2.454,2.422 -5.028,4.769 -7.612,7.04 -1.46,0.118 -2.92,-0.185 -4.347,-0.022 h -0.022 c -1.233,0.908 -2.162,2.13 -3.525,2.876 -0.281,0.141 -0.497,0.346 -0.692,0.595 -0.097,0.162 -0.216,0.324 -0.281,0.508 -0.141,0.238 -0.184,0.53 -0.205,0.8 0,0.4 0.064,0.811 0.237,1.146 v 0.033 c 0.13,0.335 0.379,0.659 0.692,0.876 0.217,0.194 0.433,0.346 0.66,0.411 0.519,0.205 1.114,0.183 1.665,0 0.725,-0.249 1.363,-0.811 1.568,-1.568 0.065,-0.162 0.087,-0.314 0.087,-0.498 0.205,-1.232 -0.725,-2.108 -1.633,-2.703 0.551,-0.508 1.038,-0.995 1.633,-1.438 0.811,-0.27 1.773,-0.087 2.681,0 0.357,0.054 0.746,0.054 1.114,0.032 0.162,-0.032 0.346,-0.054 0.498,-0.086 0.335,-0.119 0.659,-0.281 0.929,-0.595 1.223,-1.168 2.476,-2.282 3.72,-3.417 0.649,-0.562 1.254,-1.146 1.871,-1.719 0.616,-0.563 1.233,-1.168 1.817,-1.752 l 0.021,-0.021 c 0.019,-0.115 0.037,-0.593 0.053,-1.307 0.258,-0.023 0.514,-0.048 0.773,-0.068 -0.009,1.281 -0.018,2.165 -0.026,2.326 v 0.205 c 0,0.022 -0.021,0.076 -0.021,0.087 -0.119,0.389 -0.508,0.649 -0.779,0.93 -2.682,2.422 -5.309,4.888 -7.969,7.321 -0.725,-0.292 -1.611,-0.346 -2.314,-0.044 -0.628,0.227 -1.125,0.681 -1.319,1.406 -0.822,1.773 1.156,3.73 2.908,3.233 0.206,-0.054 0.379,-0.141 0.563,-0.259 h 0.032 c 0.281,-0.152 0.54,-0.357 0.735,-0.606 0.119,-0.162 0.206,-0.335 0.303,-0.53 0.043,-0.129 0.119,-0.292 0.141,-0.432 0.151,-0.692 0.021,-1.492 -0.347,-2.131 2.974,-2.746 5.97,-5.504 8.943,-8.272 h 0.033 c 0.009,-0.243 0.02,-1.525 0.033,-3.296 1.268,-0.085 2.544,-0.14 3.827,-0.163 v 0.442 l -0.043,0.055 v 3.6 l 0.043,-0.054 v 40.604 l -0.043,0.043 v 2.844 c 0.011,-0.021 0.032,-0.032 0.043,-0.043 0,1.968 0,3.882 -0.011,5.731 -4.368,4.477 -12.932,13.225 -13.484,13.776 0,3.569 0.022,7.115 0,10.694 -0.476,0.163 -0.908,0.411 -1.298,0.758 -0.107,0.086 -0.227,0.194 -0.346,0.335 -0.151,0.162 -0.292,0.346 -0.4,0.519 -0.432,0.703 -0.605,1.546 -0.281,2.389 0.033,0.087 0.076,0.184 0.119,0.282 0.27,0.713 0.843,1.211 1.503,1.513 0.227,0.087 0.454,0.152 0.703,0.184 0.314,0.065 0.681,0.065 1.049,0.044 0.108,-0.022 0.216,-0.044 0.335,-0.098 0.79,-0.173 1.525,-0.692 1.86,-1.546 0.443,-0.768 0.411,-1.557 0.151,-2.282 -0.4,-0.962 -1.265,-1.73 -2.216,-2.119 -0.065,-3.363 0,-6.748 -0.043,-10.1 0.691,-0.735 8.736,-8.931 12.348,-12.597 0.011,0.886 0,1.762 0,2.606 -3.979,3.968 -8.683,8.607 -9.148,9.094 0,1.957 0,3.914 -0.011,5.861 -1.308,0.573 -2.617,1.611 -2.422,3.2 0,0.249 0.022,0.498 0.119,0.714 0.205,0.952 0.951,1.633 1.86,1.946 1.211,0.465 2.682,0.217 3.46,-0.994 0.443,-0.541 0.628,-1.168 0.563,-1.752 0,-0.162 0,-0.314 -0.022,-0.476 -0.022,-0.173 -0.098,-0.346 -0.141,-0.497 -0.378,-0.995 -1.222,-1.839 -2.271,-2.152 0,-1.784 0,-3.547 -0.032,-5.298 0.671,-0.66 5.904,-5.851 8.045,-7.97 -0.011,7.785 -0.021,13.549 -0.021,15.149 -0.011,0.011 -0.011,0.011 -0.011,0.022 v 3.265 c 0.162,1.06 -0.292,2.401 0.605,3.191 0.292,0.303 0.573,0.594 0.865,0.897 0.53,0.551 1.071,1.092 1.611,1.622 -3.676,3.763 -10.737,10.986 -11.191,11.429 0,2.996 0.022,5.959 0,8.965 -0.4,0.13 -0.757,0.335 -1.081,0.627 -0.098,0.076 -0.195,0.162 -0.292,0.281 -0.13,0.141 -0.249,0.281 -0.336,0.433 -0.368,0.594 -0.508,1.298 -0.238,2 0.022,0.076 0.065,0.162 0.098,0.227 0.227,0.606 0.703,1.028 1.254,1.276 0.195,0.076 0.378,0.13 0.595,0.152 0.259,0.054 0.562,0.054 0.876,0.032 C 6.261,-4.185 6.348,-4.206 6.445,-4.25 7.104,-4.401 7.721,-4.833 8.002,-5.537 8.37,-6.185 8.348,-6.845 8.121,-7.45 7.796,-8.261 7.072,-8.899 6.272,-9.224 c -0.054,-2.822 0,-5.644 -0.043,-8.456 0.627,-0.67 8.423,-8.586 10.975,-11.181 0.368,0.368 0.735,0.736 1.114,1.092 -3.579,3.558 -9.029,8.943 -9.408,9.332 0,1.644 0,3.288 -0.011,4.91 -1.081,0.486 -2.184,1.351 -2.022,2.681 0,0.206 0.022,0.422 0.098,0.595 0.172,0.8 0.8,1.362 1.557,1.633 1.016,0.389 2.249,0.173 2.898,-0.833 0.367,-0.454 0.519,-0.973 0.475,-1.46 0,-0.151 0,-0.27 -0.021,-0.4 -0.022,-0.151 -0.087,-0.292 -0.119,-0.421 -0.325,-0.833 -1.027,-1.547 -1.892,-1.806 0,-1.482 0,-2.963 -0.033,-4.423 0.606,-0.595 7.396,-7.331 9.181,-9.104 0.746,0.734 1.481,1.47 2.216,2.216 0.022,3.114 0,6.228 0.022,9.365 -1.254,1.254 -2.487,2.476 -3.731,3.708 -0.897,0.887 -1.773,1.784 -2.66,2.682 -0.346,0.357 -0.702,0.703 -1.049,1.06 v 0.021 c -0.01,0 -0.01,0 -0.01,0.022 -0.022,3.914 0.01,7.84 -0.022,11.743 -3.709,3.644 -7.321,7.342 -11.03,10.987 l -0.248,0.248 c -0.033,0.043 -0.065,0.108 -0.097,0.152 -0.033,0 -0.033,0.021 -0.065,0.043 -0.109,0.119 -0.217,0.249 -0.303,0.389 -0.076,0.097 -0.151,0.206 -0.162,0.325 -0.033,0.021 -0.033,0.064 -0.033,0.086 -0.021,0.065 -0.021,0.13 -0.043,0.184 v 0.173 c 0,0.097 -0.011,0.184 0,0.27 -0.011,2.282 0,4.52 0,6.802 0,1.34 0,2.649 -0.011,3.99 -0.216,0.076 -0.411,0.183 -0.606,0.303 -0.043,0.021 -0.086,0.043 -0.129,0.075 -0.065,0.033 -0.141,0.087 -0.227,0.152 -0.076,0.043 -0.13,0.097 -0.206,0.14 C 0.53,28.136 0.465,28.201 0.378,28.277 0.335,28.32 0.26,28.385 0.206,28.428 L 0.13,28.493 c -0.162,0.162 -0.314,0.346 -0.465,0.519 -0.087,0.173 -0.173,0.303 -0.281,0.487 -0.033,0.064 -0.054,0.108 -0.076,0.173 -0.033,0.086 -0.097,0.183 -0.13,0.313 -0.032,0.033 -0.065,0.098 -0.097,0.173 -0.022,0.065 -0.022,0.141 -0.043,0.206 -0.055,0.184 -0.087,0.335 -0.108,0.487 0,0.064 0,0.097 -0.033,0.14 -0.097,0.746 0.033,1.546 0.454,2.281 0.098,0.174 0.227,0.314 0.346,0.455 0.022,0.065 0.076,0.129 0.119,0.173 0.098,0.173 0.249,0.303 0.4,0.433 0.044,0.042 0.097,0.075 0.141,0.118 0.519,0.411 1.135,0.66 1.795,0.768 0.021,0.032 0.043,0.032 0.086,0.032 0.617,0.087 1.255,0.033 1.86,-0.14 0.065,-0.022 0.141,-0.022 0.216,-0.054 0.011,-0.022 0.065,-0.043 0.109,-0.043 0.108,-0.044 0.216,-0.087 0.313,-0.141 0.044,-0.011 0.076,-0.033 0.108,-0.033 0.119,-0.075 0.217,-0.151 0.325,-0.216 0,0 0,-0.011 0.021,-0.011 0.065,-0.053 0.141,-0.118 0.238,-0.162 l 0.076,-0.086 c 0.26,-0.238 0.487,-0.487 0.67,-0.779 0.109,-0.151 0.195,-0.314 0.292,-0.476 v -0.021 c 0.044,-0.087 0.065,-0.184 0.097,-0.26 0.044,-0.076 0.065,-0.173 0.109,-0.292 0.076,-0.216 0.119,-0.443 0.14,-0.681 0.011,-0.076 0.011,-0.13 0.011,-0.206 0.022,-0.259 0,-0.551 -0.032,-0.81 V 30.775 C 6.499,29.185 5.288,27.747 3.655,27.314 3.72,23.725 3.601,20.145 3.72,16.555 3.742,16.523 3.763,16.501 3.763,16.479 4.347,15.798 4.963,15.16 5.602,14.5 c 0.389,-0.432 0.799,-0.843 1.21,-1.243 0.898,-0.941 1.817,-1.838 2.747,-2.746 0.357,-0.346 0.703,-0.714 1.06,-1.049 1.092,-1.071 2.162,-2.13 3.19,-3.255 v 11.657 c -0.163,0.043 -0.325,0.075 -0.455,0.162 -0.075,0.021 -0.14,0.043 -0.237,0.086 -0.13,0.055 -0.292,0.087 -0.422,0.162 -0.141,0.065 -0.27,0.141 -0.389,0.206 -0.087,0.021 -0.152,0.097 -0.227,0.13 -0.098,0.054 -0.152,0.097 -0.227,0.14 -0.022,0.022 -0.065,0.022 -0.087,0.054 -0.022,0.022 -0.076,0.065 -0.087,0.087 -0.303,0.227 -0.573,0.454 -0.822,0.724 0,0 -0.021,0 -0.021,0.022 -0.032,0 -0.054,0.043 -0.076,0.065 -0.14,0.162 -0.302,0.314 -0.41,0.497 -0.044,0.054 -0.087,0.119 -0.141,0.162 -0.033,0.065 -0.086,0.163 -0.108,0.227 C 9.981,20.751 9.894,20.913 9.808,21.064 9.765,21.183 9.689,21.27 9.667,21.356 9.624,21.454 9.602,21.573 9.559,21.681 9.538,21.789 9.483,21.908 9.461,22.038 9.44,22.113 9.418,22.178 9.418,22.254 9.397,22.362 9.375,22.47 9.343,22.6 v 0.011 c -0.011,0.162 -0.011,0.346 -0.011,0.508 v 0.216 c 0,0.163 -0.021,0.325 0,0.508 0.108,1.504 0.952,2.79 2.108,3.677 v 0.022 c 0.303,0.205 0.595,0.389 0.909,0.54 0.022,0.033 0.054,0.033 0.076,0.054 0.291,0.141 0.605,0.271 0.929,0.357 0.044,0 0.087,0.032 0.13,0.032 0.325,0.087 0.617,0.13 0.963,0.152 0.065,0.032 0.129,0 0.205,0 0.065,0.011 0.14,0.011 0.216,0.011 0.227,0.021 0.455,0.011 0.693,-0.033 h 0.01 0.097 c 0.044,-0.021 0.12,-0.043 0.185,-0.043 0.021,-0.032 0.043,-0.032 0.075,-0.032 h 0.076 c 0,0 0.032,0 0.032,-0.011 0.065,-0.022 0.109,-0.022 0.141,-0.044 0.13,-0.032 0.216,-0.075 0.313,-0.118 0.044,0 0.087,0 0.141,-0.022 0.086,-0.054 0.173,-0.097 0.27,-0.14 0.108,-0.044 0.217,-0.087 0.314,-0.13 0.065,-0.033 0.13,-0.076 0.205,-0.109 0.13,-0.097 0.27,-0.173 0.39,-0.259 0.021,-0.022 0.032,-0.022 0.032,-0.022 0.13,-0.076 0.216,-0.141 0.303,-0.226 0.022,0 0.054,-0.022 0.076,-0.044 l 0.173,-0.162 c 0.075,-0.065 0.119,-0.141 0.183,-0.206 0.044,-0.01 0.065,-0.065 0.109,-0.086 0.162,-0.162 0.302,-0.346 0.399,-0.53 0,0 0,-0.011 0.033,-0.011 0.043,-0.097 0.087,-0.184 0.162,-0.249 0.032,-0.054 0.065,-0.097 0.097,-0.162 0.033,-0.032 0.033,-0.075 0.065,-0.119 0.011,-0.043 0.044,-0.064 0.065,-0.118 0,0 0,-0.011 0.022,-0.011 0.033,-0.098 0.086,-0.195 0.13,-0.325 0.043,-0.108 0.075,-0.205 0.118,-0.313 0.044,-0.12 0.087,-0.217 0.119,-0.292 0.022,-0.098 0.043,-0.195 0.054,-0.303 0.033,-0.108 0.076,-0.206 0.109,-0.314 0,-0.054 0.021,-0.065 0.021,-0.097 0,-0.065 0.022,-0.108 0.022,-0.184 0,-0.021 0.011,-0.065 0.011,-0.097 0.14,-0.919 0,-1.903 -0.422,-2.812 -0.281,-0.768 -0.822,-1.384 -1.438,-1.859 h -0.022 c -0.616,-0.541 -1.33,-0.931 -2.065,-1.266 0.011,-8.358 -0.021,-16.706 0.011,-25.065 1.73,-1.654 3.385,-3.363 5.082,-5.006 -0.022,5.341 -0.043,10.705 0,16.068 -0.119,0.746 0.422,1.384 0.908,1.893 3.039,3.016 6.056,6.033 9.062,9.083 v 8.704 c -0.163,0.044 -0.357,0.109 -0.541,0.174 -0.14,0.053 -0.281,0.118 -0.411,0.162 -0.064,0.053 -0.14,0.065 -0.205,0.097 -0.044,0.021 -0.076,0.021 -0.119,0.043 -0.27,0.141 -0.541,0.27 -0.79,0.454 h -0.021 c -0.27,0.184 -0.519,0.39 -0.768,0.584 -0.054,0.054 -0.098,0.065 -0.151,0.098 v 0.021 c -0.065,0.043 -0.098,0.098 -0.152,0.13 -0.064,0.065 -0.13,0.119 -0.205,0.183 -0.087,0.098 -0.151,0.174 -0.249,0.271 -0.14,0.184 -0.292,0.346 -0.432,0.53 -0.022,0.043 -0.076,0.075 -0.097,0.108 -0.13,0.141 -0.217,0.303 -0.304,0.487 -0.032,0.021 -0.054,0.064 -0.075,0.086 -0.022,0.065 -0.043,0.108 -0.087,0.184 -0.054,0.065 -0.086,0.141 -0.118,0.227 -0.108,0.162 -0.185,0.324 -0.249,0.498 -0.022,0.075 -0.043,0.162 -0.076,0.227 v 0.021 c -0.033,0.087 -0.065,0.184 -0.075,0.271 -0.077,0.27 -0.141,0.519 -0.195,0.789 -0.055,0.411 -0.087,0.854 -0.055,1.287 -0.096,4.141 4.326,7.601 8.348,6.509 0.066,-0.021 0.119,-0.043 0.195,-0.065 0.13,-0.021 0.27,-0.043 0.378,-0.097 0.163,-0.043 0.325,-0.108 0.454,-0.151 0.098,-0.043 0.185,-0.065 0.271,-0.108 0,0 0.021,-0.033 0.043,-0.033 0.228,-0.086 0.455,-0.206 0.66,-0.335 0.075,-0.054 0.141,-0.087 0.205,-0.141 0.066,-0.075 0.162,-0.108 0.228,-0.162 0.086,-0.054 0.183,-0.13 0.281,-0.173 0.011,-0.054 0.054,-0.076 0.107,-0.119 0.152,-0.119 0.292,-0.249 0.433,-0.389 0,0 0.011,-0.011 0.044,-0.033 0.021,-0.032 0.043,-0.054 0.064,-0.075 0.141,-0.162 0.303,-0.314 0.412,-0.487 0.096,-0.076 0.162,-0.216 0.249,-0.324 0.043,-0.076 0.086,-0.141 0.139,-0.206 0.066,-0.076 0.119,-0.151 0.152,-0.216 0.097,-0.184 0.216,-0.357 0.292,-0.541 0.033,-0.065 0.065,-0.108 0.076,-0.183 0.043,-0.065 0.064,-0.152 0.119,-0.249 0.043,-0.076 0.086,-0.206 0.13,-0.292 0.054,-0.141 0.064,-0.292 0.118,-0.454 0.044,-0.13 0.087,-0.292 0.13,-0.454 0.033,-0.12 0.065,-0.206 0.065,-0.314 0.097,-0.508 0.152,-1.049 0.075,-1.601 -0.032,-0.151 -0.032,-0.345 -0.075,-0.519 -0.01,-0.27 -0.087,-0.572 -0.173,-0.843 -0.086,-0.335 -0.227,-0.681 -0.389,-0.994 -0.13,-0.271 -0.271,-0.541 -0.401,-0.779 v -0.011 c -0.865,-1.33 -2.206,-2.325 -3.665,-2.919 -0.044,-3.158 0.022,-6.294 -0.022,-9.419 0.141,-0.941 -0.638,-1.579 -1.2,-2.184 C 30.98,9.624 28.406,7.007 25.801,4.412 25.368,3.968 24.687,3.515 24.816,2.736 c -0.043,-9.429 0.022,-18.88 -0.043,-28.353 0.098,-0.702 -0.584,-1.178 -0.973,-1.708 -2.249,-2.271 -4.541,-4.487 -6.791,-6.748 v -22.783 c 0.973,0.973 8.056,8.002 8.845,8.769 -0.032,1.752 -0.032,3.515 -0.032,5.299 -1.049,0.313 -1.882,1.157 -2.27,2.152 -0.044,0.162 -0.119,0.324 -0.141,0.508 -0.021,0.162 -0.021,0.303 -0.021,0.476 -0.055,0.584 0.118,1.2 0.561,1.74 0.779,1.212 2.261,1.46 3.461,0.995 0.908,-0.313 1.654,-0.995 1.87,-1.935 0.087,-0.216 0.109,-0.476 0.109,-0.725 0.205,-1.578 -1.115,-2.627 -2.412,-3.2 -0.021,-1.947 -0.021,-3.904 -0.021,-5.861 -0.498,-0.519 -5.84,-5.796 -9.949,-9.894 v -2.617 c 2.996,3.038 12.403,12.608 13.16,13.408 -0.054,3.363 0.011,6.737 -0.054,10.111 -0.952,0.378 -1.816,1.146 -2.206,2.109 -0.27,0.735 -0.292,1.524 0.141,2.292 0.335,0.843 1.07,1.362 1.871,1.535 0.107,0.054 0.216,0.076 0.324,0.097 0.378,0.033 0.735,0.033 1.049,-0.043 0.26,-0.021 0.486,-0.086 0.703,-0.172 0.67,-0.303 1.232,-0.801 1.503,-1.525 0.043,-0.087 0.097,-0.184 0.119,-0.282 0.324,-0.843 0.152,-1.687 -0.281,-2.389 -0.109,-0.173 -0.249,-0.346 -0.4,-0.509 -0.109,-0.151 -0.239,-0.248 -0.346,-0.345 -0.39,-0.346 -0.812,-0.595 -1.298,-0.746 -0.022,-3.591 0,-7.138 0,-10.706 -0.584,-0.573 -10.283,-10.499 -14.285,-14.608 v -13.312 c 19.518,20.037 20.33,20.859 21.151,21.67 1.222,1.276 2.66,2.39 3.547,3.925 -0.465,0.195 -0.887,0.389 -1.309,0.627 -0.085,0.065 -0.151,0.087 -0.249,0.152 -0.605,0.367 -1.145,0.843 -1.599,1.395 -0.044,0.043 -0.066,0.065 -0.119,0.108 0,0.022 -0.022,0.022 -0.022,0.022 -0.368,0.475 -0.638,0.995 -0.79,1.567 -0.032,0.033 -0.032,0.044 -0.032,0.065 v 0.022 c 0,0 -0.022,0.022 -0.022,0.054 -0.043,0.151 -0.097,0.335 -0.108,0.519 -0.638,2.833 1.449,5.547 4.131,6.315 -0.022,2.768 -0.043,5.493 -0.065,8.261 -3.039,3.104 -6.174,6.164 -9.223,9.278 l -0.022,0.022 v 13.041 c -0.13,0.075 -0.249,0.097 -0.379,0.184 -0.065,0.021 -0.119,0.043 -0.151,0.075 -0.043,0.011 -0.065,0.055 -0.098,0.055 -0.075,0.053 -0.151,0.097 -0.194,0.129 -0.065,0.033 -0.119,0.065 -0.162,0.098 -0.151,0.118 -0.292,0.227 -0.422,0.367 -0.076,0.065 -0.098,0.14 -0.162,0.205 -0.141,0.162 -0.281,0.336 -0.39,0.519 -0.01,0.055 -0.075,0.087 -0.107,0.13 -0.033,0.076 -0.044,0.152 -0.076,0.217 -0.476,0.994 -0.497,2.151 0.292,3.103 0.778,1.211 2.27,1.471 3.504,1.049 h 0.075 c 0.032,-0.022 0.064,-0.022 0.108,-0.044 0.086,-0.021 0.152,-0.064 0.249,-0.118 0.129,-0.065 0.248,-0.141 0.367,-0.195 0.087,-0.054 0.184,-0.097 0.249,-0.141 0.065,-0.075 0.119,-0.14 0.184,-0.183 0.064,-0.065 0.13,-0.141 0.194,-0.227 0.141,-0.141 0.249,-0.303 0.347,-0.455 0.022,-0.021 0.022,-0.043 0.043,-0.086 0.022,-0.076 0.075,-0.162 0.098,-0.249 0.021,-0.075 0.064,-0.119 0.064,-0.183 0.087,-0.184 0.13,-0.39 0.13,-0.606 0.097,-0.368 0.097,-0.714 0,-1.049 -0.011,-0.054 -0.043,-0.119 -0.065,-0.173 -0.043,-0.173 -0.108,-0.357 -0.205,-0.541 -0.022,0 -0.022,0 -0.022,-0.022 -0.043,-0.064 -0.087,-0.162 -0.141,-0.227 -0.032,-0.065 -0.108,-0.129 -0.151,-0.194 -0.021,-0.033 -0.021,-0.054 -0.043,-0.076 -0.055,-0.054 -0.087,-0.108 -0.141,-0.162 -0.044,-0.065 -0.108,-0.087 -0.162,-0.14 -0.163,-0.152 -0.336,-0.304 -0.519,-0.444 -0.173,-0.108 -0.335,-0.238 -0.52,-0.346 -0.053,-0.011 -0.096,-0.043 -0.161,-0.065 -0.14,-0.076 -0.292,-0.183 -0.432,-0.248 0,-1.179 0,-2.423 0.021,-3.623 3.168,3.125 6.38,6.207 9.396,9.494 0.227,2.195 0.314,4.433 -0.01,6.596 C 42.453,3.752 41.967,4.261 41.502,4.736 41.025,5.201 40.528,5.667 40.053,6.142 39.695,5.958 39.339,5.85 38.949,5.764 38.776,5.699 38.614,5.688 38.431,5.645 H 38.344 C 38.182,5.623 38.02,5.602 37.847,5.602 h -0.076 -0.054 c -0.541,0.021 -1.049,0.129 -1.514,0.399 -0.065,0.055 -0.108,0.076 -0.162,0.108 -0.043,0.033 -0.076,0.076 -0.13,0.098 -0.043,0.043 -0.087,0.097 -0.162,0.141 -0.108,0.118 -0.228,0.227 -0.313,0.389 -0.022,0.021 -0.055,0.043 -0.077,0.065 -0.54,0.659 -0.68,1.481 -0.54,2.281 v 0.054 c 0.043,0.238 0.119,0.444 0.205,0.638 0,0.054 0.022,0.076 0.043,0.108 0.098,0.217 0.184,0.389 0.314,0.606 0.033,0.022 0.055,0.032 0.076,0.065 0.141,0.173 0.271,0.367 0.454,0.497 0.022,0.011 0.022,0.043 0.054,0.065 0.173,0.141 0.347,0.27 0.573,0.389 h 0.032 c 0.433,0.227 0.931,0.357 1.471,0.292 0.098,0 0.185,-0.021 0.271,-0.054 0.076,0 0.14,0 0.205,-0.011 0.097,0 0.14,-0.021 0.216,-0.043 0.076,-0.032 0.152,-0.043 0.249,-0.075 0.043,-0.011 0.108,-0.044 0.173,-0.065 0.033,0 0.033,-0.022 0.033,-0.022 h 0.01 c 0.076,-0.043 0.119,-0.065 0.184,-0.108 0.033,0 0.033,-0.033 0.055,-0.033 0.085,-0.032 0.172,-0.108 0.248,-0.183 0.044,-0.011 0.086,-0.033 0.108,-0.065 0.119,-0.087 0.194,-0.162 0.27,-0.249 0.054,-0.043 0.065,-0.076 0.086,-0.086 l 0.034,-0.022 c 0.096,-0.097 0.13,-0.184 0.183,-0.27 0.109,-0.163 0.227,-0.346 0.303,-0.53 0.075,-0.108 0.119,-0.227 0.173,-0.346 0,-0.033 0.021,-0.054 0.021,-0.109 0.022,-0.064 0.044,-0.118 0.044,-0.183 0.227,-0.746 0.205,-1.547 -0.065,-2.271 1.125,-1.146 2.293,-2.303 3.406,-3.493 L 44.27,3.558 c -0.043,-2.488 -0.022,-4.953 -0.022,-7.44 -3.363,-3.363 -6.747,-6.704 -10.089,-10.056 -0.833,-0.66 -0.659,-1.752 -0.757,-2.704 4.055,3.969 8.1,7.992 12.078,12.036 -0.032,2.952 -0.032,5.893 -0.032,8.834 0,1.871 0,3.73 -0.021,5.601 -0.141,0.044 -0.249,0.109 -0.357,0.184 -0.076,0.032 -0.14,0.087 -0.216,0.109 -0.043,0.021 -0.054,0.043 -0.109,0.064 0,0 -0.021,0 -0.021,0.022 -0.13,0.064 -0.271,0.184 -0.389,0.249 -0.022,0.032 -0.033,0.032 -0.033,0.054 l -0.032,0.01 c -0.022,0 -0.022,0.033 -0.043,0.033 -0.087,0.065 -0.163,0.151 -0.249,0.249 -0.065,0.064 -0.163,0.14 -0.227,0.205 0,0.022 0,0.022 -0.022,0.043 -0.054,0.043 -0.097,0.119 -0.162,0.173 -0.022,0.054 -0.054,0.076 -0.065,0.13 -0.032,0.032 -0.075,0.086 -0.098,0.151 -0.096,0.109 -0.162,0.227 -0.194,0.357 -0.054,0.043 -0.075,0.119 -0.087,0.184 0,0.022 -0.032,0.054 -0.032,0.076 -0.075,0.129 -0.097,0.292 -0.13,0.443 v 0.098 c -0.129,0.562 -0.065,1.156 0.26,1.73 0.292,0.746 0.886,1.232 1.579,1.503 0,0.021 0,0.021 0.011,0.021 0.756,0.292 1.611,0.314 2.389,0.043 0.075,-0.032 0.119,-0.032 0.162,-0.043 0.043,-0.021 0.076,-0.054 0.109,-0.075 0.119,-0.044 0.226,-0.087 0.345,-0.163 l 0.022,-0.011 c 0.141,-0.075 0.249,-0.162 0.357,-0.292 l 0.065,-0.075 c 0.076,-0.043 0.119,-0.119 0.183,-0.162 0,-0.011 0.034,-0.011 0.034,-0.044 0.086,-0.065 0.139,-0.162 0.205,-0.259 0.087,-0.13 0.183,-0.26 0.226,-0.422 0.109,-0.206 0.217,-0.443 0.249,-0.627 v -0.033 c 0.022,-0.097 0.022,-0.183 0.032,-0.28 0.034,-0.141 0.077,-0.271 0.077,-0.422 0,-0.368 -0.077,-0.681 -0.228,-1.006 -0.043,-0.151 -0.13,-0.335 -0.226,-0.497 V 11.527 C 48.336,10.759 47.535,10.1 46.681,9.829 46.638,4.833 46.703,-0.173 46.659,-5.201 44.453,-7.375 42.28,-9.559 40.063,-11.754 h -0.01 c -2.185,-2.206 -4.391,-4.401 -6.574,-6.607 v -3.417 l 2.659,-2.66 c 1.806,-1.784 3.591,-3.59 5.364,-5.407 -0.033,1.255 -0.044,2.477 -0.044,3.709 -1.405,1.449 -2.844,2.823 -4.238,4.272 0.032,1.633 0.032,3.243 -0.011,4.876 3.406,3.634 7.093,7.018 10.488,10.641 0.162,4.282 0.184,8.65 -0.13,12.965 0.196,1.481 1.72,2.616 3.18,2.519 0.097,0 0.151,-0.021 0.249,-0.021 0,-0.022 0.022,0 0.022,-0.022 h 0.129 c 0.184,-0.043 0.378,-0.075 0.551,-0.14 0.044,-0.011 0.109,-0.033 0.185,-0.065 0.064,-0.044 0.139,-0.055 0.205,-0.087 0.021,-0.022 0.064,-0.043 0.098,-0.075 0.032,-0.022 0.075,-0.033 0.107,-0.055 0.065,-0.054 0.108,-0.075 0.162,-0.13 0.108,-0.064 0.195,-0.172 0.314,-0.259 0.022,-0.065 0.065,-0.075 0.108,-0.119 0,0 0.021,0 0.021,-0.021 0.12,-0.109 0.228,-0.249 0.326,-0.39 0.021,-0.011 0.021,-0.076 0.043,-0.108 0.064,-0.097 0.107,-0.184 0.162,-0.281 0.043,-0.087 0.086,-0.152 0.108,-0.249 0.022,-0.043 0.043,-0.086 0.075,-0.13 0.022,-0.097 0.043,-0.162 0.066,-0.248 0,0 0,-0.022 0.021,-0.044 V 6.596 C 53.731,6.563 53.742,6.499 53.742,6.434 V 6.391 c 0.022,-0.022 0,-0.065 0.022,-0.119 0,-0.087 0.032,-0.173 0.032,-0.271 V 5.958 c 0,-0.129 0,-0.259 -0.032,-0.356 0,-0.076 -0.022,-0.152 -0.033,-0.206 0,-0.054 0,-0.076 -0.032,-0.086 C 53.655,5.028 53.559,4.769 53.429,4.552 53.374,4.444 53.288,4.347 53.224,4.261 53.158,4.142 53.083,4.022 52.996,3.915 52.975,3.893 52.953,3.85 52.932,3.828 52.834,3.72 52.726,3.623 52.606,3.525 c 0,-0.01 0,-0.01 -0.021,0 -0.119,-0.087 -0.227,-0.162 -0.346,-0.227 -0.021,0 -0.043,0 -0.053,-0.022 C 52.088,3.233 51.99,3.211 51.904,3.168 51.883,3.168 51.86,3.146 51.839,3.125 51.774,3.093 51.677,3.082 51.612,3.049 c -0.054,0 -0.087,-0.021 -0.151,-0.021 0,0 0,-0.022 -0.011,-0.022 C 51.288,2.984 51.137,2.963 50.996,2.931 H 50.92 c -0.314,-0.012 -0.638,-0.012 -0.951,0.032 -0.044,0 -0.087,-0.032 -0.109,0 -0.021,0.021 -0.054,0.021 -0.064,0.021 -0.055,-0.021 -0.119,0 -0.163,0.022 h -0.086 c -0.206,0.022 -0.422,0.087 -0.584,0.14 -0.022,-1.156 0,-2.324 0.032,-3.503 v -0.638 c 0,-1.103 0.022,-2.227 -0.032,-3.341 v -0.703 c -0.022,-0.66 -0.055,-1.276 -0.098,-1.903 -0.854,-0.887 -1.665,-1.73 -2.552,-2.595 -1.881,-1.903 -3.86,-3.817 -5.774,-5.742 -0.313,-0.346 -0.627,-0.66 -0.93,-0.984 -0.335,-0.336 -0.66,-0.681 -0.952,-0.984 -0.475,-1.254 -0.107,-2.736 -0.248,-4.077 0.022,0 0.022,-0.01 0.043,-0.043 0.985,-1.049 1.979,-2.044 2.974,-3.071 0.162,1.341 -0.508,3.104 0.8,4.044 4.196,4.185 8.402,8.391 12.608,12.587 v 8.899 c 0.065,0.714 -0.216,1.568 0.39,2.119 1.449,1.59 3.016,3.028 4.508,4.564 -0.507,2.465 0.552,5.255 2.91,6.293 0.799,0.432 1.665,0.573 2.498,0.552 0.064,0 0.13,-0.033 0.173,-0.033 0.356,-0.011 0.746,-0.087 1.113,-0.173 0.033,-0.021 0.108,-0.021 0.184,-0.043 0.086,-0.033 0.173,-0.043 0.259,-0.098 0.023,0 0.055,-0.021 0.076,-0.021 0.043,-0.022 0.109,-0.044 0.162,-0.054 0.065,-0.043 0.13,-0.076 0.206,-0.108 0.173,-0.087 0.335,-0.152 0.498,-0.271 0.043,-0.021 0.064,-0.021 0.107,-0.032 0,-0.033 0.033,-0.065 0.055,-0.065 0.064,-0.033 0.108,-0.076 0.151,-0.097 0.043,-0.054 0.098,-0.076 0.141,-0.13 0.205,-0.13 0.388,-0.292 0.562,-0.443 0,-0.022 0.022,-0.022 0.022,-0.044 0.064,-0.053 0.119,-0.118 0.162,-0.183 0.14,-0.119 0.249,-0.26 0.335,-0.389 l 0.032,-0.022 c 0.044,-0.065 0.087,-0.13 0.13,-0.184 0.043,-0.086 0.119,-0.162 0.162,-0.249 0.173,-0.292 0.336,-0.595 0.422,-0.919 l 0.032,-0.011 c 0.076,-0.13 0.098,-0.27 0.13,-0.432 0.055,-0.108 0.076,-0.227 0.087,-0.357 0.032,-0.054 0.032,-0.119 0.054,-0.162 C 70.881,7.429 69.075,4.52 66.383,3.968 66.167,3.871 65.939,3.828 65.713,3.806 H 65.626 C 65.334,3.752 65.031,3.752 64.729,3.785 c -0.141,0 -0.303,0.021 -0.455,0.065 -0.313,0.043 -0.584,0.118 -0.876,0.205 0,0.022 -0.021,0.022 -0.043,0.022 -0.021,0 -0.054,0.021 -0.097,0.043 -0.39,0.151 -0.768,0.346 -1.157,0.541 -0.065,0.054 -0.13,0.097 -0.195,0.14 -0.345,0.205 -0.659,0.433 -0.962,0.649 -0.022,0.043 -0.065,0.054 -0.108,0.108 -1.179,-1.287 -2.455,-2.509 -3.634,-3.73 0.011,-3.039 0,-6.099 0.011,-9.105 -0.065,-0.692 0.141,-1.503 -0.497,-1.979 -4.25,-4.39 -8.629,-8.629 -12.922,-12.976 0.075,-5.839 0.119,-11.679 0.184,-17.518 0.626,-0.216 1.265,-0.562 1.805,-0.984 h 0.055 c 0.086,-0.065 0.194,-0.151 0.313,-0.238 0.325,-0.248 0.606,-0.551 0.866,-0.875 0.053,-0.033 0.096,-0.098 0.162,-0.174 0,-0.021 0.021,-0.043 0.043,-0.075 0.053,-0.054 0.097,-0.13 0.14,-0.195 0.043,-0.097 0.109,-0.184 0.152,-0.27 0.053,-0.076 0.108,-0.162 0.173,-0.249 h 0.01 c 0.055,-0.119 0.066,-0.216 0.119,-0.324 0.022,-0.065 0.043,-0.141 0.065,-0.195 0.044,-0.097 0.098,-0.194 0.119,-0.314 0.044,-0.107 0.076,-0.216 0.087,-0.324 0.021,-0.075 0.021,-0.119 0.021,-0.184 0.043,-0.119 0.066,-0.227 0.066,-0.346 v -0.022 c 0.021,0 0.021,0 0,-0.021 0.021,-0.086 0.021,-0.162 0.021,-0.249 0.033,-0.043 0.033,-0.129 0.033,-0.205 0.151,-2.639 -1.817,-4.791 -4.218,-5.569 -0.118,-0.811 -0.086,-1.795 -0.832,-2.357 -1.32,-1.341 -2.703,-2.704 -26.169,-26.742 v -21.226 c 0.271,0.487 0.574,0.984 0.866,1.449 0.324,0.465 0.638,0.951 0.951,1.395 0.379,0.53 0.789,1.092 1.233,1.611 0.043,0.065 0.087,0.119 0.129,0.184 0.249,0.313 0.498,0.638 0.779,0.94 0.195,0.271 0.422,0.519 0.649,0.768 0.28,0.292 0.53,0.584 0.768,0.854 0.378,0.368 0.714,0.736 1.049,1.071 0.194,0.184 0.367,0.368 0.551,0.53 l 0.022,0.011 c 0.746,1.103 1.697,2.487 2.724,4.012 0,0 0.022,0 0.022,0.01 h -0.043 c 0.075,0.097 0.108,0.141 0.184,0.206 3.763,5.471 8.466,12.435 8.931,12.878 -0.032,1.644 -0.032,3.299 -0.032,4.985 -0.973,0.292 -1.773,1.092 -2.13,2.023 -0.043,0.129 -0.098,0.292 -0.119,0.454 -0.043,0.151 -0.043,0.313 -0.043,0.454 -0.044,0.562 0.141,1.114 0.54,1.633 0.735,1.135 2.12,1.362 3.255,0.951 0.844,-0.292 1.579,-0.951 1.752,-1.86 0.076,-0.184 0.087,-0.411 0.087,-0.638 0.205,-1.492 -1.038,-2.476 -2.249,-3.017 -0.033,-1.838 -0.033,-3.665 -0.033,-5.504 -0.238,-0.227 -2.617,-3.72 -5.277,-7.677 2.584,2.638 5.536,5.655 8.282,8.521 -0.043,3.168 0.023,6.315 -0.01,9.472 -0.919,0.357 -1.73,1.092 -2.076,2.001 -0.27,0.659 -0.303,1.438 0.108,2.13 0.324,0.8 1.006,1.297 1.752,1.481 0.098,0.022 0.226,0.055 0.324,0.065 0.346,0.033 0.682,0.033 1.006,-0.043 0.216,-0.022 0.433,-0.087 0.627,-0.173 0.616,-0.26 1.157,-0.735 1.406,-1.416 0.054,-0.087 0.097,-0.185 0.129,-0.282 0.304,-0.757 0.141,-1.568 -0.259,-2.227 -0.119,-0.173 -0.249,-0.324 -0.389,-0.487 -0.12,-0.119 -0.195,-0.227 -0.346,-0.324 -0.335,-0.314 -0.735,-0.563 -1.168,-0.703 -0.054,-3.363 0,-6.704 -0.043,-10.035 -0.671,-0.66 -12.003,-12.197 -12.663,-12.878 h -0.032 c -0.086,-0.163 -0.195,-0.314 -0.282,-0.444 1.676,1.384 3.288,2.617 4.694,3.601 5.461,3.882 10.11,8.132 13.808,12.652 0.346,0.4 0.67,0.789 0.962,1.156 0.908,1.158 1.72,2.25 2.434,3.266 0.292,0.455 0.584,0.887 0.865,1.319 0.248,0.346 0.433,0.66 0.627,0.984 0.389,0.66 0.757,1.212 1.07,1.784 0.162,0.325 0.325,0.639 0.476,0.931 0.184,0.346 0.347,0.648 0.486,0.962 0.271,0.584 0.466,1.114 0.65,1.546 0.119,0.27 0.205,0.552 0.281,0.768 0.248,0.714 0.378,1.211 0.422,1.568 0.097,0.367 0.097,0.562 0.097,0.562 v 0.011 c 0.021,0.378 0.194,5.882 0.227,6.899 v 0.141 c 0,4.887 -0.065,9.796 -0.033,14.673 -0.054,0.033 -0.151,0.033 -0.216,0.065 -0.205,0.033 -0.39,0.054 -0.552,0.119 -0.107,0.021 -0.226,0.043 -0.324,0.097 -0.216,0.044 -0.4,0.13 -0.605,0.227 -1.427,0.606 -2.606,1.752 -3.125,3.179 -0.195,0.444 -0.271,0.974 -0.303,1.493 -0.292,3.049 2.336,5.558 5.222,5.893 -0.042,3.082 0.033,6.153 -0.042,9.245 3.178,3.407 6.595,6.553 9.786,9.916 -0.401,1.979 0.962,4.218 3.135,4.098 0.282,0.022 0.531,-0.032 0.779,-0.097 0.206,-0.043 0.389,-0.108 0.562,-0.205 0.736,-0.357 1.277,-1.017 1.557,-1.763 0.422,-1.125 0.292,-2.411 -0.659,-3.276 -0.93,-1.06 -2.326,-1.114 -3.547,-0.639 -0.465,0.185 -0.865,0.412 -1.222,0.704 -2.898,-2.953 -5.893,-5.764 -8.748,-8.759 -0.671,-0.649 -0.346,-1.612 -0.443,-2.412 0.021,-2.325 -0.011,-4.617 0.064,-6.931 0.174,-0.021 0.314,-0.097 0.466,-0.151 1.74,-0.627 3.243,-2.077 3.741,-3.839 0.248,-0.757 0.303,-1.6 0.119,-2.444 -0.249,-1.979 -1.935,-3.114 -3.255,-4.315 -0.065,-5.157 0,-10.337 -0.022,-15.462 0.444,0.443 0.865,0.908 1.309,1.395 0.033,4.076 -0.054,8.185 0.065,12.273 0.659,1.34 2.173,2.097 2.941,3.362 0.054,2.433 0.076,4.867 -0.011,7.267 -1.167,1.568 -2.736,2.747 -3.99,4.207 l -0.01,0.021 c 0.01,0.8 0.043,1.59 0.064,2.368 0.638,0.628 1.222,1.265 1.86,1.86 -0.508,1.611 -0.378,3.72 1.319,4.563 0.227,0.163 0.476,0.271 0.735,0.346 0.152,0.033 0.271,0.033 0.379,0.065 0.335,0.076 0.659,0.044 0.973,-0.032 0.206,-0.054 0.389,-0.13 0.595,-0.195 0.184,-0.097 0.357,-0.205 0.541,-0.324 0.194,-0.087 0.334,-0.216 0.475,-0.379 0.303,-0.281 0.552,-0.616 0.714,-0.973 0.087,-0.216 0.151,-0.4 0.184,-0.595 0.129,-0.475 0.129,-0.995 -0.033,-1.503 -0.4,-1.686 -2.044,-2.422 -3.579,-2.227 -0.053,0 -0.097,0 -0.13,0.022 -0.249,0.053 -0.464,0.097 -0.703,0.194 -0.194,0.011 -0.41,0.13 -0.561,0.227 -0.563,-0.551 -1.104,-1.081 -1.656,-1.622 0,-0.259 0.023,-0.465 0.087,-0.713 0.152,-0.736 0.595,-1.374 1.147,-1.947 0.281,-0.314 0.605,-0.616 0.94,-0.898 0.465,-0.4 0.908,-0.778 1.33,-1.189 0.184,-0.227 0.379,-0.411 0.563,-0.659 h 0.021 c -0.076,-2.823 0.065,-5.613 -0.076,-8.413 -0.767,-1.287 -2.27,-2.012 -2.919,-3.352 -0.119,-3.547 -0.054,-7.105 -0.021,-10.651 1.599,1.816 3.547,3.33 5.039,5.244 0.118,6.607 -0.023,13.224 0.064,19.831 2.573,2.563 5.137,5.083 7.689,7.678 -0.109,0.227 -0.162,0.476 -0.239,0.713 -0.064,0.249 -0.119,0.509 -0.151,0.79 -0.184,1.222 0,2.476 0.725,3.525 1.221,2.033 3.947,2.833 6.109,2.012 0.541,-0.174 1.093,-0.466 1.547,-0.887 0.725,-0.584 1.254,-1.406 1.524,-2.271 0.086,-0.292 0.162,-0.584 0.184,-0.887 0.108,-0.627 0.087,-1.265 -0.054,-1.903 -0.044,-0.205 -0.087,-0.379 -0.151,-0.594 -0.173,-0.541 -0.465,-1.038 -0.844,-1.504 v -0.011 c -0.119,-0.14 -0.249,-0.281 -0.411,-0.41 -0.107,-0.13 -0.271,-0.271 -0.454,-0.379 -0.119,-0.129 -0.227,-0.194 -0.367,-0.259 -0.228,-0.162 -0.444,-0.292 -0.693,-0.412 0,-0.021 0,-0.021 -0.021,0 -0.26,-0.129 -0.508,-0.205 -0.757,-0.248 -0.616,-0.162 -1.244,-0.206 -1.882,-0.086 -0.237,0.01 -0.486,0.064 -0.714,0.129 -0.151,0.011 -0.292,0.076 -0.454,0.141 -0.173,0.043 -0.378,0.119 -0.595,0.227 v 0.022 c -0.313,0.129 -0.605,0.292 -0.876,0.486 -0.128,0.087 -0.28,0.184 -0.41,0.281 -2.109,-2.173 -4.39,-4.271 -6.477,-6.488 -0.725,-0.627 -0.39,-1.632 -0.476,-2.433 0.022,-5.525 0,-11.018 0,-16.544 1.168,0 2.314,0 3.471,-0.032 1.752,1.762 3.525,3.514 5.267,5.298 -0.628,2.022 -0.098,4.574 1.946,5.569 1.102,0.681 2.379,0.681 3.513,0.248 0.412,-0.151 0.801,-0.367 1.158,-0.637 -0.141,-0.692 -0.314,-1.374 -0.476,-2.055 -0.303,0.454 -0.757,0.811 -1.254,0.995 -0.151,0.086 -0.314,0.151 -0.465,0.151 -0.249,0.043 -0.519,0.076 -0.8,0.022 -0.13,-0.022 -0.227,-0.022 -0.346,-0.054 h -0.011 c -0.217,-0.119 -0.422,-0.217 -0.616,-0.368 -0.185,-0.119 -0.347,-0.259 -0.477,-0.378 -0.096,-0.13 -0.215,-0.238 -0.27,-0.379 -0.118,-0.205 -0.237,-0.41 -0.28,-0.659 -0.109,-0.4 -0.141,-0.854 -0.023,-1.266 0.13,-0.594 0.477,-1.135 1.05,-1.481 0.086,-0.065 0.184,-0.141 0.291,-0.184 0.692,-0.346 1.504,-0.281 2.174,0.065 -0.216,-0.671 -0.444,-1.352 -0.692,-2.044 -0.108,-0.01 -0.206,-0.01 -0.303,-0.01 -0.476,-0.055 -0.909,0.043 -1.341,0.194 -0.584,0.184 -1.156,0.508 -1.719,0.757 -1.795,-1.806 -3.525,-3.709 -5.439,-5.385 -1.514,-0.508 -3.223,-0.119 -4.823,-0.206 -2.736,-2.8 -5.537,-5.546 -8.272,-8.326 -0.098,-0.065 -0.13,-0.097 -0.194,-0.173 -0.033,-0.065 -0.109,-0.14 -0.163,-0.172 -0.443,-0.682 -0.292,-1.568 -0.357,-2.369 0.022,-0.054 0,-0.097 0,-0.129 1.2,-0.033 2.4,-0.033 3.612,-0.076 1.924,1.816 3.731,3.698 5.612,5.536 2.163,0 4.336,0 6.499,-0.022 -0.152,1.915 1.211,3.991 3.265,3.861 0.282,0 0.509,-0.022 0.736,-0.097 0.053,-0.022 0.097,-0.033 0.151,-0.055 -0.162,-0.356 -0.346,-0.735 -0.53,-1.092 h -0.054 c -0.184,0.044 -0.422,0.065 -0.595,0.033 -0.151,-0.033 -0.313,-0.054 -0.443,-0.141 -0.098,-0.021 -0.141,-0.054 -0.237,-0.119 -0.109,-0.064 -0.228,-0.129 -0.326,-0.227 -0.313,-0.248 -0.54,-0.573 -0.648,-0.951 v -0.033 c -0.098,-0.4 -0.098,-0.832 0.087,-1.211 0.097,-0.216 0.227,-0.411 0.432,-0.594 0.022,-0.033 0.054,-0.065 0.086,-0.098 -0.194,-0.367 -0.389,-0.735 -0.605,-1.103 -0.292,0.162 -0.541,0.379 -0.768,0.638 -2.184,0.033 -4.39,0.011 -6.574,0 -1.817,-1.871 -3.634,-3.709 -5.515,-5.493 -1.341,0.033 -2.704,0.098 -4.087,-0.032 0,-0.141 -0.033,-0.303 -0.055,-0.487 0.055,-0.022 -0.064,-0.627 -0.173,-1.146 -0.075,-0.227 -0.118,-0.476 -0.216,-0.768 v -0.011 c -0.173,-0.627 -0.422,-1.427 -0.811,-2.357 -0.162,-0.346 -0.314,-0.714 -0.465,-1.103 v -0.011 c -0.292,-0.573 -0.573,-1.157 -0.951,-1.849 v -0.022 c -0.217,-0.4 -0.465,-0.832 -0.746,-1.286 4.8,4.768 9.775,9.742 10.023,9.969 l 0.682,0.703 c 0.226,0.217 0.486,0.433 0.735,0.638 0.735,0.13 1.503,0.109 2.281,0.152 0.022,0.075 0.077,0.162 0.141,0.205 -0.021,0.022 0,0.022 0.021,0.054 0.055,0.097 0.087,0.227 0.152,0.335 0.076,0.109 0.14,0.206 0.217,0.314 v 0.022 c 0.226,0.302 0.475,0.551 0.746,0.767 h 0.021 c 0.271,0.217 0.595,0.39 0.887,0.509 0.638,0.248 1.341,0.27 2,0.021 0.119,-0.043 0.227,-0.064 0.314,-0.14 0.595,-0.228 1.027,-0.617 1.308,-1.092 -0.237,-0.411 -0.476,-0.822 -0.735,-1.233 -0.022,0.086 -0.054,0.184 -0.086,0.281 -0.239,0.443 -0.616,0.8 -1.071,1.006 -0.119,0.043 -0.227,0.086 -0.346,0.108 -0.227,0.032 -0.454,0.054 -0.67,0.032 -0.13,-0.054 -0.217,-0.065 -0.303,-0.108 -1.103,-0.313 -1.665,-1.665 -1.255,-2.617 0.119,-0.249 0.271,-0.443 0.52,-0.616 0.162,-0.205 0.356,-0.335 0.573,-0.411 0.356,-0.162 0.768,-0.184 1.156,-0.086 -0.259,-0.412 -0.529,-0.833 -0.8,-1.244 -0.032,0.011 -0.053,0.011 -0.075,0.011 -0.14,0.022 -0.281,0.075 -0.422,0.119 -0.487,0.162 -0.952,0.475 -1.308,0.854 -0.487,0.497 -0.844,1.092 -1.071,1.687 h -0.021 c -0.573,0 -1.093,0 -1.655,-0.022 -0.389,-0.389 -10.024,-10.013 -15.506,-15.495 -0.184,-0.195 -0.335,-0.433 -0.497,-0.671 -0.477,-0.605 -1.006,-1.287 -1.547,-1.946 -0.497,-0.584 -0.984,-1.157 -1.492,-1.752 -0.909,-0.995 -1.838,-1.99 -2.844,-2.963 -0.497,-0.497 -0.963,-0.984 -1.503,-1.46 -1.017,-0.951 -2.108,-1.881 -3.201,-2.844 H 39.36 c -0.411,-0.346 -0.843,-0.702 -1.264,-1.016 -1.277,-1.049 -2.617,-2.076 -4.001,-3.049 -1.795,-1.298 -3.98,-2.931 -6.154,-4.855 0,-0.022 0,-0.022 -0.032,0 -0.821,-0.725 -1.633,-1.482 -2.432,-2.293 -0.477,-0.465 -0.909,-0.908 -1.353,-1.395 l -0.983,-1.092 v -0.01 c -0.476,-0.574 -0.974,-1.168 -1.46,-1.785 -0.401,-0.519 -0.789,-1.049 -1.125,-1.589 -0.162,-0.173 -0.303,-0.4 -0.443,-0.617 -0.551,-0.811 -1.038,-1.676 -1.471,-2.541 -0.021,-0.011 -0.021,-0.043 -0.043,-0.087 -0.184,-0.356 -0.346,-0.746 -0.497,-1.113 -0.487,-1.114 -0.844,-2.249 -1.093,-3.385 v -5.243 c 3.124,0.083 6.2,0.352 9.223,0.79 0.581,5.33 1.11,10.224 1.298,11.925 l 0.023,0.022 c 3.882,3.092 7.742,6.174 11.602,9.267 -0.379,0.822 -0.475,1.774 -0.249,2.606 0.076,0.194 0.141,0.378 0.228,0.53 0.118,0.227 0.248,0.443 0.41,0.616 0.249,0.271 0.573,0.498 0.952,0.681 h 0.022 c 0.226,0.141 0.475,0.227 0.735,0.271 2.151,0.465 4.401,-2.109 3.244,-4.174 v -0.033 c -0.324,-0.832 -0.952,-1.351 -1.73,-1.589 -0.876,-0.292 -1.957,-0.173 -2.812,0.248 -3.428,-2.714 -6.866,-5.493 -10.315,-8.196 -0.358,-0.346 -0.866,-0.595 -1.049,-1.06 0,-0.054 -0.023,-0.076 -0.023,-0.119 0,-0.065 -0.021,-0.151 0,-0.27 -0.179,-1.454 -0.657,-5.741 -1.187,-10.55 0.296,0.047 0.591,0.096 0.886,0.147 0.015,0.146 0.026,0.243 0.032,0.271 0.41,2.941 0.475,6.023 1.135,8.932 l 0.021,0.01 c 0.779,0.671 1.568,1.33 2.379,1.979 0.801,0.639 1.601,1.298 2.423,1.947 1.611,1.254 3.211,2.53 4.801,3.828 0.389,0.335 0.789,0.519 1.221,0.637 0.173,0.022 0.39,0.065 0.606,0.044 0.432,0.021 0.886,-0.022 1.341,-0.119 1.114,-0.173 2.25,-0.476 3.254,-0.227 0.747,0.476 1.428,1.049 2.131,1.59 -1.071,0.821 -2.131,1.978 -1.773,3.46 0.021,0.205 0.064,0.411 0.162,0.562 0.313,0.908 1.124,1.579 2.044,1.795 0.681,0.162 1.405,0.141 2,-0.162 0.292,-0.087 0.552,-0.292 0.768,-0.519 0.216,-0.184 0.411,-0.401 0.551,-0.628 -0.486,-1.405 -0.929,-2.822 -1.341,-4.238 -1.654,-0.811 -2.843,-2.184 -4.379,-3.125 L 45.61,-95.86 c -1.741,-0.076 -3.503,0.422 -5.276,0.411 -3.363,-2.552 -6.65,-5.169 -9.852,-7.905 -0.16,-0.974 -0.499,-4.292 -0.881,-8.28 0.285,0.054 0.571,0.108 0.856,0.165 0.128,1.35 0.214,2.256 0.231,2.406 v 0.021 c 0.086,1.201 0.195,2.391 0.412,3.569 0.064,0.497 0.172,0.973 0.291,1.481 h 0.022 c 1.352,1.179 2.768,2.315 4.195,3.429 1.416,1.156 2.823,2.227 4.249,3.319 l 0.023,0.011 c 2.151,0.14 4.325,-0.465 6.509,-0.541 0.952,0.822 1.936,1.601 2.92,2.379 -0.163,-0.605 -0.314,-1.211 -0.455,-1.806 -0.162,-0.14 -0.334,-0.281 -0.497,-0.411 -0.249,-0.162 -0.454,-0.367 -0.67,-0.54 -0.097,-0.065 -0.173,-0.141 -0.249,-0.206 -0.314,-0.227 -0.617,-0.454 -1.016,-0.551 l -0.011,-0.022 c -2.055,0.152 -4.077,0.454 -6.077,0.649 -2.628,-2.109 -5.288,-4.196 -7.948,-6.304 -0.105,-0.59 -0.39,-3.242 -0.74,-6.631 35.414,7.7 62.017,39.278 62.017,76.956 0,43.431 -35.337,78.764 -78.772,78.764"
           style="fill:#222a60;fill-opacity:1;fill-rule:nonzero;stroke:none"
           id="path190" /></g></g></g></svg>
